<svg width="162" height="87" viewBox="0 0 162 87" fill="none" xmlns="http://www.w3.org/2000/svg">
<g opacity="0.6">
<path d="M120.268 50.6899C129.224 43.36 141.792 34.7032 147.261 38.5839C153.852 43.2632 137.847 49.1499 125.811 55.1785C121.494 57.3414 114.558 55.3617 120.268 50.6899Z" fill="#D5D6DA"/>
</g>
<g opacity="0.5">
<path d="M109.726 60.6124L109.741 60.2811C109.922 60.2868 128.26 61.0564 154.376 75.688L154.138 75.959C128.123 61.3827 109.905 60.6181 109.726 60.6124Z" fill="white"/>
<path d="M132.985 62.0777C131.84 57.6446 133.021 55.3567 133.074 55.2613L133.452 55.3915C133.443 55.4137 132.274 57.6908 133.39 62.0107L132.985 62.0777Z" fill="white"/>
<path d="M130.929 65.3C131.212 63.3949 133.077 61.516 136.327 59.8594C137.856 59.0872 139.481 58.4371 141.168 57.9186L141.308 58.2301C141.215 58.2565 131.988 60.9637 131.34 65.3398L130.929 65.3Z" fill="white"/>
<path d="M138.112 68.813C137.957 68.3059 137.904 68.0019 137.898 67.9845L138.311 67.9389C138.323 68.0028 139.522 74.3999 146.452 78.2244L146.217 78.4961C140.629 75.4171 138.689 70.704 138.112 68.813Z" fill="white"/>
<path d="M135.776 76.9413C135.499 74.6485 136.327 73.0083 137.067 72.036C137.877 70.9773 138.743 70.4686 138.778 70.4471L139.019 70.7181C138.987 70.7371 135.675 72.7152 136.184 76.9115L135.776 76.9413Z" fill="white"/>
</g>
<g opacity="0.6">
<path d="M50.6544 10.4984C50.6544 10.4984 51.4078 9.33886 53.3133 9.48386C55.2191 9.62887 54.9927 10.7925 55.8999 10.6832C56.8071 10.5738 58.0726 10.6832 58.3496 11.4104C58.6269 12.1378 59.8477 11.7419 59.8932 12.3556C59.9388 12.9694 58.4861 13.4092 56.8071 12.8643C55.128 12.3191 54.3107 13.2883 51.9509 13.1128C49.591 12.937 49.2991 12.7193 47.9027 12.8278C46.506 12.9363 46.5379 12.171 47.1785 11.6623C47.8188 11.1538 50.3825 11.2034 50.6544 10.4984Z" fill="#EAEAEA"/>
</g>
<g opacity="0.6">
<path d="M119.518 24.0947H46.8619C45.8229 24.0947 44.9809 24.7689 44.9809 25.6005V35.4942C44.9809 36.3258 45.8229 37.0001 46.8619 37.0001H119.518C120.557 37.0001 121.399 36.3258 121.399 35.4942V25.6005C121.399 24.7689 120.557 24.0947 119.518 24.0947Z" fill="#D5D6DA"/>
</g>
<g opacity="0.6">
<path d="M120.256 40.9388H85.1725C85.101 40.9388 85.0296 40.9276 84.9642 40.9057C84.8987 40.8837 84.8392 40.8515 84.7886 40.8112C84.738 40.7707 84.6964 40.7225 84.6696 40.6698C84.6428 40.6168 84.6279 40.5603 84.6279 40.5031V40.2462C84.6279 40.1887 84.6428 40.1317 84.6696 40.0788C84.6994 40.0256 84.738 39.9774 84.7886 39.9371C84.8422 39.8966 84.9017 39.8644 84.9672 39.8427C85.0356 39.821 85.104 39.8103 85.1784 39.8105L120.262 40.0697C120.405 40.0709 120.542 40.1172 120.643 40.1985C120.744 40.2801 120.801 40.39 120.801 40.5047C120.801 40.6199 120.744 40.7304 120.64 40.8117C120.539 40.893 120.402 40.9388 120.256 40.9388Z" fill="#D5D6DA"/>
</g>
<g opacity="0.6">
<path d="M120.31 43.4427L85.1338 43.7742C85.0683 43.7747 85.0029 43.7649 84.9404 43.7451C84.8809 43.7256 84.8243 43.6963 84.7797 43.6593C84.7321 43.6221 84.6934 43.578 84.6696 43.5293C84.6428 43.4807 84.6309 43.4284 84.6309 43.3757V43.0444C84.6309 42.939 84.6845 42.8379 84.7767 42.7633C84.869 42.6886 84.9969 42.6469 85.1278 42.6469H120.304C120.435 42.6469 120.563 42.6886 120.655 42.7633C120.747 42.8377 120.801 42.9388 120.801 43.0444C120.801 43.1491 120.75 43.2498 120.658 43.3244C120.566 43.3989 120.441 43.4415 120.31 43.4427Z" fill="#D5D6DA"/>
</g>
<g opacity="0.6">
<path d="M64.4951 52.1924H45.2439V51.2747L64.1818 51.4833C64.3404 51.4852 64.4918 51.537 64.6031 51.6274C64.7147 51.718 64.7769 51.8401 64.7766 51.9672C64.7766 52.0269 64.7468 52.0843 64.6942 52.1266C64.6412 52.1688 64.5698 52.1924 64.4951 52.1924Z" fill="#D5D6DA"/>
</g>
<g opacity="0.6">
<path d="M70.5124 54.4347L45.5605 54.7016C45.5191 54.702 45.4781 54.6963 45.4397 54.6839C45.4013 54.6717 45.3665 54.6536 45.3367 54.6305C45.3073 54.6073 45.284 54.5797 45.268 54.5492C45.2519 54.5189 45.2439 54.486 45.2439 54.453V54.0471C45.2439 53.9813 45.2766 53.9179 45.3346 53.8714C45.3929 53.8248 45.4718 53.7986 45.5542 53.7986H70.5061C70.5882 53.7986 70.6674 53.8248 70.7254 53.8714C70.7837 53.9179 70.8165 53.9813 70.8165 54.0471V54.1862C70.8165 54.2513 70.7846 54.3138 70.7278 54.3603C70.6707 54.4068 70.5936 54.4335 70.5124 54.4347Z" fill="#D5D6DA"/>
</g>
<g opacity="0.6">
<path d="M90.3944 54.4373L72.9383 54.6989C72.885 54.6997 72.832 54.692 72.7824 54.6763C72.733 54.6603 72.6877 54.6369 72.6497 54.6069C72.6119 54.5771 72.5815 54.5413 72.561 54.5019C72.5401 54.4626 72.5297 54.4204 72.5297 54.3777V54.1168C72.5297 54.0314 72.572 53.9496 72.6473 53.8895C72.7226 53.8292 72.8246 53.7953 72.9311 53.7953H90.3944C90.5015 53.7955 90.6027 53.8294 90.6771 53.8897C90.7515 53.9501 90.7961 54.0316 90.7961 54.1168C90.7961 54.2017 90.7515 54.2832 90.6771 54.3433C90.6027 54.4034 90.5015 54.4373 90.3944 54.4373Z" fill="#D5D6DA"/>
</g>
<g opacity="0.6">
<path d="M120.31 47.0683L85.1338 47.3998C85.0683 47.4003 85.0029 47.3905 84.9404 47.3707C84.8809 47.3512 84.8243 47.3218 84.7797 47.2849C84.7321 47.2477 84.6934 47.2035 84.6696 47.1549C84.6428 47.1062 84.6309 47.054 84.6309 47.0013V46.67C84.6309 46.5646 84.6845 46.4635 84.7767 46.3888C84.869 46.3142 84.9969 46.2725 85.1278 46.2725H120.304C120.435 46.2725 120.563 46.3142 120.655 46.3888C120.747 46.4633 120.801 46.5644 120.801 46.67C120.801 46.7747 120.75 46.8754 120.658 46.95C120.566 47.0244 120.441 47.0671 120.31 47.0683Z" fill="#D5D6DA"/>
</g>
<g opacity="0.6">
<path d="M79.3495 38.7618H66.3884C65.6106 38.7618 64.9804 39.2667 64.9804 39.8892V47.4561C64.9804 48.0786 65.6106 48.5835 66.3884 48.5835H79.3495C80.1261 48.5835 80.7569 48.0786 80.7569 47.4561V39.8892C80.7569 39.2667 80.1261 38.7618 79.3495 38.7618Z" fill="#D5D6DA"/>
</g>
<path d="M42.9811 68.0691C43.8035 68.0691 44.47 67.5354 44.47 66.8771C44.47 66.2187 43.8035 65.6852 42.9811 65.6852C42.1589 65.6852 41.4924 66.2187 41.4924 66.8771C41.4924 67.5354 42.1589 68.0691 42.9811 68.0691Z" fill="#00A3FE"/>
<g opacity="0.4">
<path d="M86.077 47.3352C92.9146 41.8592 92.9146 32.9803 86.077 27.504C79.2364 22.0279 68.1472 22.0279 61.3075 27.504C54.4675 32.9803 54.4675 41.8592 61.3072 47.3352C68.1472 52.8115 79.2364 52.8115 86.077 47.3352Z" fill="#00A3FE"/>
</g>
<path d="M93.6019 49.3703C93.6019 49.3703 90.5075 49.4242 89.6594 48.3383C88.8085 47.2522 90.2486 46.3073 90.2486 46.3073L94.8546 48.3009L93.6019 49.3703Z" fill="#FF7955"/>
<path d="M88.7787 43.6908L87.4308 45.4323L121.595 62.3722L122.943 60.6308L88.7787 43.6908Z" fill="#131F2D"/>
<path d="M123.273 61.3522L122.541 62.2981C122.401 62.4786 122.175 62.6074 121.919 62.656C121.661 62.7047 121.39 62.6692 121.164 62.5573L103.341 53.719C103.115 53.6071 102.954 53.428 102.894 53.221C102.832 53.0142 102.876 52.7965 103.016 52.6157L103.748 51.6698C103.888 51.4893 104.111 51.3605 104.37 51.3118C104.629 51.2632 104.9 51.2987 105.126 51.4106L122.949 60.2487C123.175 60.3608 123.336 60.5399 123.395 60.7469C123.458 60.9537 123.413 61.1714 123.273 61.3522Z" fill="#131F2D"/>
<path d="M58.1044 29.6893C56.1951 32.1575 55.2423 35.0239 55.3676 37.9257C55.4926 40.8274 56.6893 43.6343 58.8069 45.9915C60.9243 48.3486 63.8673 50.1501 67.2635 51.168C70.6597 52.1862 74.3567 52.3748 77.8871 51.7106C81.4174 51.0464 84.622 49.5589 87.0976 47.4363C89.5702 45.3137 91.2037 42.6514 91.7869 39.7859C92.3731 36.9204 91.8821 33.9805 90.3795 31.3378C88.8769 28.6952 86.4311 26.4687 83.3485 24.9394C81.3014 23.9242 79.0252 23.2418 76.6478 22.9311C74.2716 22.6203 71.8418 22.6874 69.4978 23.1283C67.1537 23.5693 64.9408 24.3759 62.986 25.5016C61.0314 26.6273 59.3726 28.0501 58.1044 29.6893ZM87.9129 44.4716C86.1692 46.7235 83.6312 48.5112 80.62 49.6085C77.6097 50.7061 74.2597 51.0638 70.9947 50.6369C67.7294 50.21 64.6957 49.0173 62.2769 47.2098C59.8582 45.4025 58.1633 43.0614 57.4064 40.4826C56.6497 37.904 56.8648 35.2035 58.0247 32.7227C59.1848 30.2419 61.2376 28.0923 63.9235 26.5457C66.6095 24.9988 69.8081 24.1248 73.1147 24.0334C76.4211 23.9423 79.6857 24.638 82.5005 26.0329C84.3661 26.959 85.9878 28.1706 87.2702 29.5984C88.5556 31.0263 89.472 32.6426 89.9749 34.3547C90.4777 36.0671 90.5551 37.8417 90.201 39.5775C89.8469 41.3135 89.0673 42.9765 87.9129 44.4716Z" fill="#131F2D"/>
<path d="M121.259 52.5005C120.432 47.5398 113.484 44.7375 113.484 44.7375C113.484 44.7375 114.073 55.7932 115.26 55.4669C117.293 54.9086 120.078 54.8969 121.259 52.5005Z" fill="#00A3FE"/>
<path d="M107.682 80.3864C107.682 80.3864 107.628 81.2147 106.929 81.4367C106.23 81.6585 104.218 81.8235 104.95 82.3735C105.37 82.6898 107.402 82.539 107.973 82.5483C108.545 82.5574 109.074 82.7751 109.512 82.4737C109.991 82.1424 109.58 80.4286 109.58 80.4286C109.58 80.4286 109.077 80.6265 108.634 80.6075C107.997 80.58 107.682 80.3864 107.682 80.3864Z" fill="#131F2D"/>
<path d="M102.665 59.4528C102.799 61.1764 103.052 63.4137 103.519 66.1507C104.409 71.3692 105.489 76.6282 106.022 79.1505C106.105 79.5815 106.367 79.9776 106.765 80.275C107.164 80.5724 107.676 80.7537 108.217 80.7897L108.81 80.8221C109.997 80.8865 110.991 80.0766 110.937 79.0875L110.006 62.081L109.916 59.3758C109.916 59.3758 102.445 56.6257 102.665 59.4528Z" fill="#364154"/>
<path d="M114.234 80.5304C114.234 80.5304 114.18 81.3587 113.481 81.5798C112.782 81.8011 110.77 81.9666 111.502 82.5176C111.922 82.8331 113.951 82.6833 114.525 82.6924C115.097 82.7014 115.626 82.9194 116.061 82.617C116.54 82.2857 116.129 80.5719 116.129 80.5719C116.129 80.5719 115.629 80.7699 115.186 80.7508C114.546 80.7234 114.234 80.5304 114.234 80.5304Z" fill="#131F2D"/>
<path d="M109.098 55.3228C109.098 55.3228 108.836 59.07 110.068 66.2957C110.961 71.5142 112.041 76.7732 112.573 79.2955C112.657 79.7264 112.919 80.1228 113.314 80.4202C113.713 80.7176 114.225 80.8989 114.769 80.9347L115.361 80.9669C116.549 81.0315 117.543 80.2216 117.486 79.2325L116.555 62.226L116.373 56.6314L109.098 55.3228Z" fill="#364154"/>
<path d="M110.363 67.7667L110.273 67.7567C110.273 67.7262 110.782 64.6546 111.163 63.5521C111.544 62.4497 113.314 61.4815 113.335 61.4688L113.386 61.5294C113.371 61.5385 111.627 62.4846 111.252 63.5711C110.877 64.6579 110.363 67.7359 110.363 67.7667Z" fill="#131F2D"/>
<path d="M110.384 43.8041L109.925 42.6831L109.791 42.3569L109.003 40.4377L108.899 42.3428L108.836 43.4892L108.818 43.852C108.804 44.1005 108.604 44.1494 108.363 44.364C108.265 44.4468 107.64 44.976 108.351 45.2131C109.238 45.5095 110.895 45.0614 111.526 44.474C111.52 44.4766 110.532 44.1668 110.384 43.8041Z" fill="#FF7955"/>
<path d="M111.321 41.484C111.589 40.3671 110.812 39.3096 109.586 39.1222C108.363 38.9347 107.155 39.6881 106.887 40.8052C106.623 41.9223 107.396 42.9798 108.622 43.1673C109.845 43.3547 111.053 42.6011 111.321 41.484Z" fill="#FF7955"/>
<path d="M107.851 40.4377C106.56 40.4742 105.932 39.9116 105.917 39.3908C105.9 38.7223 106.456 38.1308 107.105 38.3793C107.753 38.6278 107.477 38.0182 108.098 37.9536C109.265 37.8327 109.485 38.4587 110.437 38.4895C111.696 38.5291 113.127 40.1122 112.077 41.2677C112.077 41.2677 108.872 40.4086 107.851 40.4377Z" fill="#131F2D"/>
<path d="M106.7 39.7633C106.7 39.7633 108.081 40.7664 107.899 41.3314C107.718 41.8964 107.762 42.1167 108.569 42.4182C109.375 42.7196 108.664 43.2076 109.738 43.2465C110.812 43.2853 112.127 42.3237 112.127 40.7482C112.121 40.2164 111.886 39.7027 111.458 39.2953L106.7 39.7633Z" fill="#131F2D"/>
<path d="M107.203 41.3066C107.271 41.2267 107.378 41.1706 107.497 41.1499C107.616 41.1289 107.738 41.1446 107.845 41.194C107.893 41.2214 107.932 41.2565 107.962 41.297C107.991 41.3376 108.012 41.3824 108.018 41.4292C108.027 41.4759 108.021 41.5231 108.003 41.5682C107.988 41.6133 107.959 41.655 107.92 41.691C107.851 41.7709 107.744 41.8267 107.625 41.8475C107.506 41.8682 107.384 41.8522 107.277 41.8026C107.23 41.7755 107.191 41.7404 107.161 41.7001C107.131 41.6595 107.111 41.6147 107.105 41.568C107.096 41.5212 107.102 41.474 107.119 41.4289C107.134 41.3838 107.164 41.3423 107.203 41.3066Z" fill="#FFB27D"/>
<path d="M112.594 41.7025C112.588 41.7022 112.579 41.7001 112.573 41.6965C112.568 41.6927 112.565 41.6877 112.562 41.6817C112.505 41.5422 112.389 41.4244 112.228 41.3504C112.225 41.349 112.222 41.3469 112.219 41.3442C112.216 41.3416 112.216 41.3385 112.213 41.3352C112.213 41.3318 112.213 41.3285 112.213 41.3252C112.213 41.3218 112.213 41.3185 112.216 41.3156C112.219 41.3128 112.222 41.3099 112.225 41.3078C112.228 41.3056 112.231 41.3039 112.237 41.303C112.24 41.302 112.243 41.3018 112.249 41.302C112.252 41.3023 112.258 41.3032 112.261 41.3049C112.437 41.3865 112.568 41.5181 112.627 41.6736C112.627 41.6769 112.627 41.6803 112.627 41.6836C112.627 41.687 112.624 41.6903 112.621 41.6932C112.621 41.6963 112.618 41.6986 112.612 41.7008C112.609 41.7027 112.606 41.7041 112.603 41.7051L112.594 41.7025Z" fill="#131F2D"/>
<path d="M112.246 41.2295C112.237 41.2295 112.228 41.2272 112.222 41.2226C112.216 41.2181 112.213 41.2119 112.213 41.2054C112.213 41.2021 112.213 41.1988 112.213 41.1954C112.216 41.1923 112.216 41.1895 112.219 41.1869C112.222 41.1842 112.228 41.1823 112.231 41.1807C112.234 41.1792 112.237 41.1783 112.243 41.1783C112.243 41.1783 112.594 41.1592 112.645 40.9553C112.648 40.9486 112.654 40.9426 112.66 40.9388C112.666 40.935 112.675 40.9333 112.684 40.9345C112.692 40.936 112.698 40.94 112.704 40.9457C112.71 40.9515 112.71 40.9584 112.71 40.9653C112.648 41.2081 112.264 41.2286 112.246 41.2295Z" fill="#131F2D"/>
<path d="M107.301 38.3395C107.277 38.3395 107.253 38.3368 107.233 38.3311C107.137 38.3075 107.048 38.2717 106.968 38.2252C106.893 38.1756 106.804 38.1425 106.709 38.1293C106.617 38.1162 106.518 38.1236 106.429 38.1506C106.423 38.1518 106.42 38.152 106.417 38.1518C106.411 38.1513 106.408 38.1503 106.402 38.1487C106.399 38.1472 106.396 38.1448 106.393 38.1422C106.39 38.1396 106.391 38.1365 106.388 38.1332C106.388 38.1301 106.388 38.1265 106.388 38.1231C106.388 38.1198 106.388 38.1165 106.391 38.1134C106.393 38.1105 106.396 38.1079 106.399 38.1057C106.402 38.1036 106.405 38.1019 106.411 38.101C106.51 38.0721 106.617 38.0647 106.721 38.0793C106.825 38.0938 106.92 38.1298 107 38.1837C107.078 38.2274 107.161 38.2608 107.25 38.2832C107.271 38.2891 107.295 38.291 107.319 38.2882C107.343 38.2856 107.366 38.2784 107.387 38.2674C107.527 38.1904 107.563 37.9362 107.563 37.9362C107.563 37.9295 107.569 37.9233 107.575 37.919C107.581 37.9147 107.59 37.9126 107.599 37.913C107.601 37.9133 107.607 37.9142 107.61 37.9159C107.613 37.9176 107.616 37.9197 107.619 37.9226C107.622 37.9252 107.625 37.9283 107.625 37.9316C107.628 37.935 107.628 37.9385 107.625 37.9419C107.625 37.9526 107.59 38.2185 107.42 38.3096C107.384 38.3292 107.343 38.3397 107.301 38.3395Z" fill="#131F2D"/>
<path d="M110.339 38.4065C110.035 38.3958 109.744 38.3037 109.512 38.1449C109.509 38.1427 109.506 38.1401 109.503 38.137C109.5 38.1339 109.5 38.1303 109.497 38.1267C109.497 38.1232 109.497 38.1196 109.5 38.116C109.5 38.1127 109.503 38.1096 109.506 38.1067C109.509 38.1041 109.512 38.1019 109.518 38.1005C109.521 38.0991 109.527 38.0981 109.53 38.0981C109.536 38.0981 109.539 38.0988 109.544 38.1005C109.547 38.1019 109.55 38.1041 109.553 38.1067C109.553 38.1067 109.982 38.4074 110.476 38.3469C110.485 38.3459 110.494 38.3478 110.5 38.3516C110.508 38.3557 110.511 38.3619 110.514 38.3686C110.514 38.3752 110.511 38.3822 110.509 38.3877C110.503 38.3934 110.494 38.3972 110.485 38.3984C110.437 38.4039 110.389 38.4067 110.339 38.4065Z" fill="#131F2D"/>
<path d="M107.548 41.8739C107.518 41.8746 107.488 41.8716 107.459 41.8649C107.456 41.8646 107.456 41.8639 107.453 41.863C107.45 41.862 107.45 41.8608 107.447 41.8592C107.447 41.8577 107.447 41.856 107.447 41.8541C107.444 41.8522 107.444 41.8506 107.447 41.8487C107.447 41.847 107.447 41.8453 107.45 41.8439C107.45 41.8427 107.453 41.8415 107.456 41.841C107.456 41.8403 107.459 41.8401 107.462 41.8401C107.465 41.8403 107.468 41.8408 107.468 41.8417C107.48 41.8417 107.759 41.9121 107.959 41.614C107.959 41.6123 107.962 41.6111 107.962 41.6099C107.964 41.609 107.964 41.6083 107.967 41.6078C107.97 41.6073 107.97 41.6071 107.973 41.6073C107.976 41.6075 107.976 41.608 107.979 41.609C107.982 41.6104 107.985 41.613 107.985 41.6161C107.988 41.6192 107.988 41.6226 107.985 41.6254C107.843 41.8384 107.658 41.8739 107.548 41.8739Z" fill="#131F2D"/>
<path d="M102.665 59.4528C102.665 59.4528 112.035 59.0386 116.48 59.9074L116.549 58.8771L110.312 57.382L105.278 57.4822L103.733 57.7505L102.641 59.1213L102.665 59.4528Z" fill="#131F2D"/>
<path d="M115.65 46.9028C115.65 46.9028 114.823 44.0201 109.779 44.0201C100.987 44.0201 103.454 49.8492 102.641 59.1173C102.641 59.1173 108.31 58.1182 116.51 59.4485C116.51 59.4485 117.31 54.4297 116.278 50.1871C116.004 49.0655 116.052 47.8768 115.65 46.9028Z" fill="#00A3FE"/>
<path d="M108.768 44.0201C108.768 44.0201 105.947 44.0533 103.849 45.6627C101.755 47.2722 99.053 49.4881 98.4787 50.7628C97.7735 52.3367 99.0738 53.9105 100.722 53.942C102.371 53.9734 103.849 53.0035 103.849 53.0035L108.768 44.0201Z" fill="#00A3FE"/>
<path d="M116.778 57.1864H116.715C116.959 53.5508 116.168 49.8291 116.159 49.7919L116.221 49.7836C116.224 49.8184 117.019 53.546 116.778 57.1864Z" fill="#131F2D"/>
<path d="M102.873 53.526L102.841 53.4838C104.498 52.6887 106.655 50.5954 106.676 50.5739L106.724 50.6061C106.703 50.6269 104.54 52.7275 102.873 53.526Z" fill="#131F2D"/>
<path d="M91.3644 49.7852C91.3436 50.8134 97.7022 54.5706 101.517 53.9427C105.572 53.2801 100.568 49.6636 100.568 49.6636L93.0932 48.2861C93.0932 48.2861 91.3853 48.7442 91.3644 49.7852Z" fill="#00A3FE"/>
<path d="M93.0932 48.2861C93.114 48.1664 93.0991 48.0445 93.0455 47.931C92.995 47.8172 92.9087 47.7156 92.7986 47.6343C92.4148 47.3633 92.016 46.1282 91.7631 46.438C91.5132 46.7478 91.7453 47.7335 91.3644 47.8396C90.9836 47.9455 93.0932 48.2861 93.0932 48.2861Z" fill="#FF7955"/>
<path d="M95.8901 26.3196H95.5152C95.4646 26.3196 95.417 26.3351 95.3842 26.3628C95.3485 26.3905 95.3307 26.4279 95.3307 26.467V27.7923C95.3307 27.8317 95.3099 27.8694 95.2741 27.8973C95.2414 27.9249 95.1938 27.9407 95.1432 27.9407H95.0123C94.9617 27.9404 94.9171 27.9247 94.8814 27.897C94.8487 27.8691 94.8278 27.8314 94.8278 27.7923V26.467C94.8278 26.4279 94.807 26.3905 94.7743 26.3628C94.7386 26.3351 94.691 26.3196 94.6434 26.3196H94.2774C94.2268 26.3196 94.1792 26.3039 94.1465 26.2762C94.1108 26.2483 94.0899 26.2106 94.0899 26.1713V26.1424C94.0899 26.1031 94.1108 26.0654 94.1465 26.0375C94.1792 26.0096 94.2268 25.9941 94.2774 25.9941H95.8901C95.9407 25.9941 95.9853 26.0096 96.021 26.0375C96.0567 26.0654 96.0746 26.1031 96.0746 26.1424V26.1713C96.0746 26.2106 96.0567 26.2483 96.021 26.2762C95.9853 26.3039 95.9407 26.3196 95.8901 26.3196Z" fill="#00A3FE"/>
<path d="M97.6367 27.0957H97.0416C96.994 27.0957 96.9464 27.1114 96.9136 27.1391C96.8779 27.1665 96.8601 27.2042 96.8601 27.2433V27.4694C96.8601 27.5085 96.8779 27.5462 96.9136 27.5739C96.9464 27.6018 96.994 27.6175 97.0416 27.6177H97.8033C97.8271 27.6177 97.8539 27.6216 97.8747 27.629C97.8985 27.6363 97.9164 27.6473 97.9342 27.6611C97.9521 27.675 97.967 27.6912 97.9759 27.7093C97.9848 27.7272 97.9878 27.7465 97.9878 27.7658V27.7923C97.9878 27.8119 97.9848 27.8312 97.9759 27.8491C97.967 27.867 97.9521 27.8834 97.9342 27.8973C97.9164 27.9111 97.8985 27.9218 97.8747 27.9295C97.8539 27.9368 97.8271 27.9407 97.8033 27.9407H96.5417C96.4941 27.9407 96.4465 27.9252 96.4108 27.8973C96.3751 27.8694 96.3572 27.8317 96.3572 27.7923V26.1357C96.3572 26.0964 96.3751 26.0587 96.4108 26.0308C96.4465 26.0031 96.4941 25.9874 96.5417 25.9874H97.8003C97.8509 25.9876 97.8955 26.0034 97.9313 26.0313C97.967 26.0589 97.9848 26.0966 97.9848 26.1357V26.1648C97.9848 26.2039 97.967 26.2414 97.9313 26.2693C97.8955 26.297 97.8509 26.3127 97.8003 26.3129H97.0416C96.994 26.3129 96.9464 26.3284 96.9136 26.3561C96.8779 26.3838 96.8601 26.4215 96.8601 26.4606V26.6261C96.8601 26.6652 96.8779 26.7029 96.9136 26.7308C96.9464 26.7584 96.994 26.7742 97.0416 26.7744H97.6367C97.6843 26.7744 97.7319 26.7899 97.7676 26.8176C97.8033 26.8453 97.8212 26.8827 97.8212 26.9218V26.9409C97.8241 26.9609 97.8182 26.981 97.8092 26.9996C97.8003 27.0184 97.7884 27.0356 97.7706 27.0501C97.7527 27.0644 97.7319 27.0761 97.7081 27.084C97.6873 27.0919 97.6605 27.0959 97.6367 27.0957Z" fill="#00A3FE"/>
<path d="M99.5499 27.4286C99.5499 27.3976 99.544 27.3664 99.5321 27.3368C99.5172 27.307 99.4934 27.281 99.4606 27.2614C99.416 27.2338 99.3654 27.2109 99.3148 27.1935C99.2375 27.166 99.1571 27.1422 99.0738 27.1222C98.9697 27.095 98.8656 27.063 98.7644 27.026C98.6722 26.9934 98.5829 26.9507 98.5055 26.8994C98.4341 26.8538 98.3746 26.7976 98.33 26.7336C98.2853 26.6647 98.2645 26.5886 98.2645 26.5114C98.2645 26.4341 98.2853 26.358 98.33 26.2889C98.3746 26.2209 98.4371 26.1617 98.5144 26.1167C98.6007 26.0668 98.696 26.0291 98.7971 26.0055C98.9161 25.979 99.0381 25.9659 99.1601 25.9666C99.2851 25.9655 99.4101 25.9805 99.5291 26.0115C99.6332 26.0382 99.7284 26.0806 99.8117 26.1365C99.8891 26.1887 99.9486 26.2538 99.9903 26.327C100.002 26.343 100.008 26.3587 100.017 26.3742C100.026 26.3964 100.029 26.4203 100.023 26.4434C100.02 26.4665 100.008 26.4885 99.9903 26.5076C99.9724 26.5266 99.9516 26.5419 99.9248 26.5526C99.898 26.5634 99.8683 26.5688 99.8415 26.5688H99.7046C99.6659 26.5686 99.6302 26.5586 99.5975 26.5402C99.5648 26.5219 99.541 26.4959 99.5291 26.4663C99.5291 26.4663 99.5291 26.4587 99.5291 26.4553C99.5142 26.4212 99.4874 26.3905 99.4547 26.3652C99.419 26.3392 99.3773 26.3194 99.3297 26.3072C99.2732 26.2922 99.2137 26.2853 99.1512 26.2865C99.0947 26.2858 99.0352 26.2915 98.9816 26.3039C98.937 26.3139 98.8953 26.3301 98.8596 26.3518C98.8298 26.3711 98.806 26.3962 98.7882 26.4248C98.7733 26.4522 98.7644 26.4823 98.7644 26.5126C98.7644 26.5464 98.7763 26.5798 98.7971 26.6089C98.8179 26.638 98.8507 26.6619 98.8864 26.6783C98.9994 26.732 99.1214 26.7728 99.2464 26.7992C99.3684 26.8283 99.4844 26.8653 99.5975 26.9094C99.6897 26.9445 99.776 26.9905 99.8504 27.0461C99.9159 27.0942 99.9665 27.1527 100.005 27.2175C100.041 27.2858 100.056 27.359 100.056 27.4329C100.059 27.5121 100.035 27.5903 99.9933 27.6614C99.9516 27.7272 99.8891 27.784 99.8147 27.8271C99.7314 27.8758 99.6362 27.9113 99.535 27.9323C99.419 27.9583 99.294 27.9707 99.172 27.9695C99.0917 27.9695 99.0113 27.9638 98.931 27.9531C98.8536 27.9421 98.7763 27.9247 98.7019 27.9008C98.6275 27.8798 98.5591 27.8519 98.4936 27.8181C98.4341 27.7837 98.3776 27.7425 98.33 27.6955C98.2853 27.6466 98.2466 27.592 98.2228 27.5338V27.5247C98.2139 27.5025 98.2109 27.4792 98.2169 27.4563C98.2199 27.4334 98.2318 27.4119 98.2496 27.3931C98.2675 27.3745 98.2913 27.3594 98.3151 27.349C98.3419 27.3387 98.3716 27.3332 98.3984 27.3335H98.5293C98.568 27.3335 98.6067 27.3442 98.6394 27.3637C98.6721 27.3833 98.6959 27.4107 98.7078 27.442C98.7108 27.456 98.7168 27.4701 98.7257 27.4835C98.7465 27.5226 98.7793 27.5572 98.8209 27.5836C98.8685 27.6099 98.9191 27.6287 98.9756 27.6392C99.0381 27.6511 99.1036 27.6571 99.172 27.6566C99.2286 27.6571 99.2851 27.6516 99.3416 27.6399C99.3833 27.6306 99.422 27.6149 99.4577 27.5937C99.4904 27.575 99.5142 27.551 99.5291 27.5231C99.544 27.4932 99.5529 27.461 99.5499 27.4286Z" fill="#00A3FE"/>
<path d="M102.04 26.3196H101.665C101.615 26.3196 101.567 26.3351 101.535 26.3628C101.499 26.3904 101.481 26.4279 101.481 26.467V27.7923C101.481 27.8317 101.46 27.8693 101.424 27.8972C101.392 27.9252 101.344 27.9407 101.294 27.9407H101.163C101.115 27.9404 101.067 27.9247 101.032 27.897C100.999 27.8691 100.978 27.8317 100.978 27.7923V26.467C100.978 26.4279 100.957 26.3904 100.925 26.3628C100.889 26.3351 100.841 26.3196 100.794 26.3196H100.431C100.38 26.3194 100.335 26.3036 100.3 26.276C100.264 26.2481 100.246 26.2106 100.246 26.1713V26.1424C100.246 26.1224 100.249 26.1026 100.258 26.084C100.267 26.0654 100.279 26.0484 100.297 26.0341C100.315 26.0196 100.335 26.0081 100.359 26.0003C100.38 25.9924 100.404 25.9883 100.431 25.9883H102.043C102.094 25.9883 102.142 26.0038 102.174 26.0317C102.21 26.0594 102.228 26.0973 102.228 26.1364V26.1655C102.231 26.1858 102.225 26.2059 102.216 26.2247C102.207 26.2435 102.195 26.2607 102.177 26.275C102.159 26.2896 102.139 26.3008 102.115 26.3086C102.091 26.3163 102.067 26.3201 102.04 26.3196Z" fill="#00A3FE"/>
<path d="M102.862 27.9407H102.728C102.68 27.9404 102.632 27.9247 102.597 27.897C102.564 27.8691 102.543 27.8317 102.543 27.7923V26.1357C102.543 26.0966 102.564 26.0589 102.597 26.0313C102.632 26.0034 102.68 25.9876 102.728 25.9874H102.862C102.909 25.9874 102.957 26.0031 102.992 26.0308C103.025 26.0587 103.046 26.0964 103.046 26.1357V27.7923C103.046 27.8317 103.025 27.8694 102.992 27.8973C102.957 27.9252 102.909 27.9407 102.862 27.9407Z" fill="#00A3FE"/>
<path d="M105.304 27.9407H105.093C105.06 27.9407 105.028 27.934 105.001 27.9216C104.974 27.9092 104.95 27.8911 104.935 27.8694L104.355 27.1074C104.334 27.0802 104.302 27.0592 104.263 27.0475C104.227 27.0358 104.186 27.0341 104.147 27.043C104.108 27.0516 104.076 27.0702 104.049 27.0957C104.025 27.1212 104.013 27.1522 104.013 27.1844V27.7923C104.013 27.8317 103.992 27.8694 103.957 27.8973C103.924 27.9252 103.876 27.9407 103.826 27.9407H103.695C103.647 27.9407 103.6 27.9252 103.564 27.8973C103.528 27.8694 103.51 27.8317 103.51 27.7923V26.1357C103.51 26.0964 103.528 26.0587 103.564 26.0308C103.6 26.0031 103.647 25.9874 103.695 25.9874H103.909C103.939 25.9876 103.971 25.9941 103.998 26.0065C104.025 26.0191 104.049 26.037 104.067 26.0587L104.647 26.8224C104.668 26.85 104.7 26.8715 104.736 26.8834C104.775 26.8951 104.816 26.897 104.855 26.8884C104.894 26.8798 104.927 26.8612 104.953 26.8355C104.977 26.81 104.989 26.7785 104.989 26.7463V26.1357C104.989 26.0966 105.01 26.0589 105.046 26.0313C105.078 26.0034 105.126 25.9876 105.174 25.9874H105.304C105.355 25.9874 105.403 26.0031 105.435 26.0308C105.471 26.0587 105.489 26.0964 105.489 26.1357V27.7923C105.489 27.8317 105.471 27.8694 105.435 27.8973C105.403 27.9252 105.355 27.9407 105.304 27.9407Z" fill="#00A3FE"/>
<path d="M107.854 27.6342C107.854 27.6549 107.848 27.6755 107.84 27.6945C107.828 27.7134 107.813 27.7306 107.792 27.7444C107.777 27.7568 107.756 27.7699 107.735 27.7833C107.679 27.8183 107.613 27.8477 107.548 27.871C107.462 27.9011 107.372 27.9242 107.28 27.9397C107.161 27.959 107.042 27.9683 106.923 27.9671C106.777 27.9686 106.629 27.9476 106.492 27.9049C106.367 27.8651 106.251 27.8023 106.158 27.722C106.063 27.6361 105.989 27.5355 105.944 27.4262C105.891 27.2967 105.864 27.1608 105.867 27.0244V26.9094C105.864 26.7728 105.891 26.6371 105.941 26.5068C105.986 26.3976 106.054 26.2967 106.149 26.2102C106.236 26.1303 106.346 26.0675 106.471 26.0272C106.605 25.9841 106.748 25.9626 106.89 25.9643C107.03 25.9616 107.17 25.9776 107.304 26.0115C107.411 26.0392 107.509 26.0845 107.593 26.1448C107.67 26.202 107.732 26.2717 107.774 26.3494C107.786 26.3711 107.798 26.3936 107.807 26.4165C107.816 26.4389 107.819 26.4625 107.813 26.4856C107.81 26.5087 107.798 26.5307 107.78 26.5498C107.762 26.5688 107.741 26.5843 107.715 26.5948C107.688 26.6056 107.661 26.6111 107.631 26.6111H107.515C107.477 26.6108 107.438 26.6006 107.405 26.5822C107.375 26.5638 107.352 26.5378 107.34 26.5085L107.325 26.4777C107.304 26.4393 107.274 26.4045 107.238 26.3759C107.2 26.3466 107.152 26.3242 107.102 26.3106C107.039 26.2946 106.974 26.2869 106.908 26.2881C106.831 26.285 106.756 26.2977 106.688 26.3249C106.62 26.3521 106.56 26.3931 106.518 26.4439C106.417 26.5841 106.37 26.7453 106.382 26.9068V27.0244C106.37 27.1873 106.42 27.3494 106.53 27.4875C106.578 27.5388 106.64 27.5801 106.715 27.6075C106.786 27.6349 106.867 27.6478 106.947 27.6449C107 27.6456 107.054 27.6425 107.105 27.6359C107.143 27.6309 107.182 27.623 107.221 27.6125C107.247 27.6044 107.274 27.5941 107.298 27.582C107.319 27.5722 107.334 27.5612 107.352 27.5488V27.3609C107.352 27.3215 107.331 27.2839 107.298 27.2559C107.262 27.228 107.215 27.2125 107.167 27.2125H107.078C107.03 27.2125 106.983 27.197 106.95 27.1694C106.914 27.1417 106.893 27.1043 106.893 27.0652C106.893 27.0258 106.914 26.9881 106.947 26.9602C106.983 26.9323 107.03 26.9168 107.078 26.9168H107.673C107.697 26.9168 107.721 26.9206 107.741 26.928C107.765 26.9357 107.786 26.9464 107.804 26.9602C107.819 26.9741 107.834 26.9905 107.842 27.0084C107.851 27.0263 107.857 27.0456 107.857 27.0652L107.854 27.6342Z" fill="#00A3FE"/>
<path d="M143.744 31.2615C139.32 35.9588 131.881 38.7494 124.109 38.7494C111.481 38.7494 100.252 31.023 100.252 20.9123C100.252 12.5719 105.944 6.59047 113.779 3.83706C115.933 3.08342 118.209 2.5752 120.539 2.32716C121.723 2.19933 122.916 2.13541 124.109 2.13565C127.162 2.13565 130.185 2.61812 133.006 3.5554C141.364 6.32384 147.446 12.8476 147.868 20.4427C148.103 24.6497 146.512 28.3275 143.744 31.2615Z" fill="#657285"/>
<path d="M110.958 22.0496C110.958 22.0496 111.85 23.7022 110.958 24.6099C110.068 25.5178 109.988 27.235 111.77 28.369C113.549 29.5028 114.317 29.6006 113.912 30.7346C113.508 31.8687 113.085 33.2543 113.752 33.8374C114.418 34.4208 114.692 35.8064 116.18 35.9083C117.667 36.0103 116.061 34.96 117.031 33.9874C118.004 33.0151 121.765 32.8212 121.402 30.9011C121.039 28.981 124.499 28.8105 124.984 27.5464C125.472 26.2824 123.407 25.5054 121.675 25.6022C119.941 25.6993 121.006 23.5364 119.125 23.2199C117.242 22.9037 116.361 21.6893 115.269 21.835C114.177 21.9807 112.963 20.7408 111.717 21.1302C110.473 21.5195 110.958 22.0496 110.958 22.0496Z" fill="#B8C1C9"/>
<path d="M107.801 8.82706C107.801 8.82706 106.507 9.63698 106.146 10.9334C105.786 12.2296 103.959 13.0398 103.677 14.8266C103.394 16.6132 104.68 16.657 104.224 17.6296C103.769 18.602 104.334 19.0883 105.721 19.5745C107.108 20.0608 107.23 20.8078 108.048 21.0539C108.869 21.3 108.655 21.9559 108.929 22.0289C109.202 22.1019 109.08 21.5319 109.366 20.7863C109.649 20.0408 109.89 19.7327 108.86 19.7651C107.828 19.7973 108.149 19.1331 108.554 18.7121C108.958 18.2914 107.988 18.2261 107.664 18.2907C107.34 18.3551 107.423 19.5547 106.753 18.9871C106.084 18.4198 105.763 17.772 106.307 17.0265C106.855 16.2812 108.027 16.8975 108.86 16.006C109.69 15.1147 110.863 15.471 110.928 16.1841C110.994 16.8974 112.648 16.9132 112.931 15.9738C113.216 15.0343 113.094 13.3968 114.793 13.1302C116.495 12.8633 119.837 11.5015 117.709 10.9425C115.585 10.3835 116.433 9.21628 115.341 9.28592C114.249 9.35532 114.674 10.6716 113.457 10.2797C112.243 9.88812 111.362 8.8459 113.064 8.55446C114.766 8.26278 115.463 6.75622 114.156 6.85305C112.85 6.94988 112.639 5.92936 111.85 6.05123C111.059 6.1731 110.241 7.70781 109.422 8.09226C108.601 8.47647 107.801 8.82706 107.801 8.82706Z" fill="#B8C1C9"/>
<path d="M118.751 5.82919C118.751 5.82919 120.432 5.45642 121.161 5.82919C121.89 6.20195 123.023 7.2549 122.071 7.64412C121.119 8.03335 120.125 8.16261 120.592 8.89145C121.057 9.62052 119.256 9.86402 118.751 8.89145C118.245 7.91911 118.245 7.56614 117.718 7.10894C117.188 6.65175 117.415 5.68347 118.751 5.82919Z" fill="#B8C1C9"/>
<path d="M143.744 31.2615C136.797 29.8019 142.56 27.5116 140.123 24.8758C138.737 23.3749 141.206 21.5674 139.626 21.3189C138.71 21.1748 136.6 23.0494 135.386 21.3189C134.169 19.5886 131.997 19.5796 131.364 20.6265C130.733 21.6735 128.067 22.399 126.317 21.6397C124.571 20.8801 125.582 19.8669 124.068 19.0718C122.556 18.2764 122.443 17.0107 124.068 16.0343C125.695 15.0577 124.948 13.647 127.388 14.0811C129.828 14.5151 129.355 10.0124 129.355 10.0124C129.316 9.22464 130.269 9.08965 129.727 8.35557C129.185 7.62172 127.659 8.21986 126.847 6.59215C126.034 4.96443 128.135 3.98779 129.828 4.14687C130.322 4.19337 131.521 3.91672 133.009 3.55469C141.37 6.32288 147.452 12.8469 147.874 20.4417C148.103 24.6497 146.512 28.3275 143.744 31.2615Z" fill="#B8C1C9"/>
<path d="M111.455 18.3303C111.455 18.3303 112.856 17.705 113.6 18.202C114.347 18.699 114.668 19.0303 115.766 18.8421C116.867 18.6542 117.614 19.0079 116.906 19.2681C116.198 19.528 114.525 19.9788 113.764 19.4386C112.999 18.8986 110.797 18.5483 111.455 18.3303Z" fill="#B8C1C9"/>
<path d="M117.099 20.3489C117.099 20.3489 118.093 20.4906 118.325 20.1634C118.554 19.8362 118.093 20.1493 117.712 19.9788C117.331 19.808 116.602 19.9788 117.099 20.3489Z" fill="#B8C1C9"/>
<path d="M81.2746 86.3859C124.514 86.3859 159.568 83.561 159.568 80.0766C159.568 76.5919 124.514 73.7672 81.2746 73.7672C38.0346 73.7672 2.98134 76.5919 2.98134 80.0766C2.98134 83.561 38.0346 86.3859 81.2746 86.3859Z" fill="#EAEAEA"/>
<path d="M109.199 53.7373C109.199 53.7373 154.917 39.5729 160.951 50.8945C166.986 62.216 126.76 54.2699 113.671 58.7719L109.199 53.7373Z" fill="#B8C1C9"/>
<path d="M111.672 56.5678C120.637 53.3274 131.697 52.3018 139.397 52.0118C147.743 51.698 154.042 52.1578 154.105 52.1618L154.141 51.8487C154.081 51.8437 147.752 51.3824 139.379 51.697C131.646 51.988 120.533 53.0223 111.508 56.2801L111.672 56.5678Z" fill="white"/>
<path d="M140.614 77.0606C134.878 75.0048 130.191 81.4889 125.57 77.0556C121.666 73.3041 121.589 72.7152 118.926 72.8435C118.013 72.891 117.114 73.0422 116.254 73.2924C115.222 73.5874 113.478 73.8889 111.842 73.2394C101.847 69.2726 99.3654 51.6672 113.906 51.3269C114.957 51.3021 116.079 51.7128 117.272 52.2107C123.77 54.9136 123.621 58.1259 133.265 55.3276C142.908 52.5296 141.9 64.0872 146.065 66.1109C150.228 68.1345 154.539 69.227 154.539 74.3336C154.539 79.4403 146.351 79.1197 140.614 77.0606Z" fill="#D5D6DA"/>
<path d="M32.2941 3.16044C32.2941 3.16044 33.7422 0.930519 37.4038 1.20956C41.0651 1.48883 40.6295 3.72447 42.3696 3.51484C44.1099 3.3052 46.5546 3.51484 47.078 4.91146C47.6016 6.30808 49.9552 5.54013 50.043 6.72711C50.1311 7.91409 47.3398 8.75335 44.1129 7.70541C40.886 6.65747 39.3177 8.51891 34.7831 8.18168C30.2485 7.84445 29.6867 7.42542 27.0031 7.63506C24.3196 7.84445 24.3835 6.37342 25.6044 5.39846C26.8252 4.4235 31.7704 4.51055 32.2941 3.16044Z" fill="#EAEAEA"/>
<path d="M28.5882 17.9843C27.7512 18.767 27.1906 18.7868 26.8076 18.5242C26.425 18.2616 26.3628 17.8152 27.1998 17.0332C28.7259 15.607 30.1577 15.393 30.1577 15.393C30.1577 15.393 30.1369 16.5361 28.5882 17.9843Z" fill="#D5D6DA"/>
<path d="M31.2542 24.3158C30.7772 25.2743 30.2559 25.4374 29.7873 25.2884C29.3186 25.1393 29.0797 24.7324 29.5555 23.7749C30.4225 22.0296 31.691 21.4555 31.691 21.4555C31.691 21.4555 32.1337 22.545 31.2542 24.3158Z" fill="#D5D6DA"/>
<path d="M37.8383 40.8916L37.6023 40.9388C37.5931 40.9097 36.6546 37.975 33.6574 34.125C30.8921 30.5722 25.7585 25.4904 17.0008 21.4515L17.1231 21.2857C25.9251 25.3447 31.0896 30.4546 33.8666 34.028C36.8885 37.9037 37.8383 40.8618 37.8383 40.8916Z" fill="#D5D6DA"/>
<path d="M26.4393 26.8612L26.2024 26.815C28.2882 19.9273 22.6209 13.8259 22.5628 13.7646L22.7574 13.647C22.8152 13.7083 28.553 19.8817 26.4393 26.8612Z" fill="#D5D6DA"/>
<path d="M21.6812 24.8286C20.217 25.2159 18.6495 25.2815 17.1427 25.0182L17.2046 24.8302C17.2326 24.836 20.0167 25.41 22.628 24.2853L22.7437 24.4568C22.4028 24.6034 22.0475 24.7279 21.6812 24.8286Z" fill="#D5D6DA"/>
<path d="M35.6656 36.8393C30.7462 37.7141 26.1143 36.9221 21.8996 34.4918C21.7973 34.4289 21.6904 34.3704 21.58 34.317C21.5893 34.3187 21.5988 34.3187 21.6077 34.317V34.1224C21.6803 34.1224 21.7404 34.1548 22.0445 34.3311C26.2012 36.7334 30.7671 37.5085 35.615 36.6504L35.6656 36.8393Z" fill="#D5D6DA"/>
<path d="M28.1133 36.7003L27.8702 36.7134C27.6476 34.0702 24.1053 31.0709 24.069 31.0411L24.2461 30.9061C24.9164 31.4902 25.5326 32.1129 26.0897 32.769C26.9505 33.7745 27.9975 35.2789 28.1133 36.7003Z" fill="#D5D6DA"/>
<path d="M16.4132 20.4691C18.0107 21.0134 18.3261 21.4772 18.1285 21.849C17.9309 22.2211 17.301 22.3601 15.6973 21.8159C12.7861 20.8221 11.7369 19.6714 11.7369 19.6714C11.7369 19.6714 13.4585 19.4636 16.4132 20.4691Z" fill="#D5D6DA"/>
<path d="M17.5037 24.2488C19.2324 24.3821 19.7073 24.7458 19.6588 25.15C19.61 25.5543 19.0578 25.8393 17.3287 25.7057C14.1795 25.4632 12.7447 24.6175 12.7447 24.6175C12.7447 24.6175 14.308 24.0003 17.5037 24.2488Z" fill="#D5D6DA"/>
<path d="M24.5016 30.2517C25.4327 30.9641 25.4255 31.4115 25.0768 31.7055C24.7281 31.9994 24.1684 32.0218 23.2374 31.3094C21.5425 30.0106 21.3545 28.8543 21.3545 28.8543C21.3545 28.8543 22.7809 28.9338 24.5016 30.2517Z" fill="#D5D6DA"/>
<path d="M22.7738 21.2354C23.4596 22.1076 23.3168 22.5416 22.8895 22.757C22.4623 22.9723 21.913 22.8879 21.2259 22.0115C19.9763 20.4219 20.1459 19.2638 20.1459 19.2638C20.1459 19.2638 21.5053 19.6225 22.7738 21.2354Z" fill="#D5D6DA"/>
<path d="M30.7442 34.882C31.097 35.8761 30.8084 36.2588 30.3219 36.3731C29.8357 36.4873 29.3383 36.2786 28.9866 35.2863C28.345 33.4797 28.914 32.4062 28.914 32.4062C28.914 32.4062 30.0934 33.049 30.7442 34.882Z" fill="#D5D6DA"/>
<path d="M22.869 34.0413C23.9687 34.5782 24.0836 35.017 23.8209 35.3626C23.5581 35.7079 23.0181 35.8281 21.9184 35.2913C19.9144 34.313 19.4219 33.2204 19.4219 33.2204C19.4219 33.2204 20.8371 33.0499 22.869 34.0413Z" fill="#D5D6DA"/>
<path d="M22.9217 12.7655C23.853 13.9385 23.7866 14.4636 23.3614 14.6807C22.9363 14.8977 22.3123 14.7245 21.3804 13.5516C19.6805 11.4147 19.6296 9.98996 19.6296 9.98996C19.6296 9.98996 21.1983 10.5979 22.9217 12.7655Z" fill="#D5D6DA"/>
<path d="M56.564 66.3835C56.564 66.3835 31.7487 33.6411 20.9055 39.3657C10.062 45.0903 43.6041 58.356 50.4506 68.0708L56.564 66.3835Z" fill="#D5D6DA"/>
<path d="M45.0162 60.5428C45.0162 60.5428 16.4557 36.2877 6.6563 43.1919C-3.14338 50.096 31.3205 55.8022 39.2867 63.0891L45.0162 60.5428Z" fill="#EAEAEA"/>
<path d="M41.8266 61.9899C36.4353 56.8776 28.429 52.8494 22.661 50.37C16.4081 47.6832 11.3698 46.1888 11.3192 46.1737L11.4349 45.9252C11.4855 45.9403 16.5456 47.4411 22.8152 50.1375C28.609 52.6274 36.6537 56.6746 42.078 61.8168L41.8266 61.9899Z" fill="white"/>
<path d="M10.8856 69.9592C17.3132 70.9599 16.4545 78.7329 23.7081 77.1708C30.9614 75.6084 30.3478 75.2416 33.9214 77.7184C33.9214 77.7184 35.3522 80.146 38.2667 80.5047C49.7502 81.9187 65.0384 68.1054 52.9039 60.8418C52.0273 60.3176 50.7672 60.1311 49.3738 59.9804C41.8132 59.1662 39.5381 61.9759 33.4143 54.9665C27.2908 47.9572 19.5005 58.2873 14.4383 58.014C9.37619 57.7407 4.88919 56.6057 1.06543 60.957C-2.75833 65.3083 4.45657 68.9628 10.8856 69.9592Z" fill="#B8C1C9"/>
<path d="M49.5145 70.7603L49.7472 70.4703C49.588 70.3875 33.3843 62.2468 0.185883 62.1872V62.5325C33.2593 62.5914 49.3551 70.6783 49.5145 70.7603Z" fill="white"/>
<path d="M28.5974 60.8518C32.8898 57.6214 33.5944 55.1065 33.6223 55.0013L33.2001 54.9293C33.1942 54.9541 32.4854 57.4547 28.3016 60.6L28.5974 60.8518Z" fill="white"/>
<path d="M27.9374 64.5835C29.1211 62.8273 28.9389 60.3291 27.4099 57.3589C26.6836 55.9663 25.7876 54.6345 24.7352 53.3827L24.3835 53.5806C24.4424 53.6479 30.2806 60.3822 27.5586 64.4202L27.9374 64.5835Z" fill="white"/>
<path d="M19.189 64.1328C19.7001 63.7751 19.9763 63.543 19.9888 63.5323L19.6784 63.2971C19.6204 63.346 13.8114 68.2189 5.04539 68.1569V68.5015C12.1011 68.5519 17.2823 65.4665 19.189 64.1328Z" fill="white"/>
<path d="M15.0974 72.1777C17.0484 70.3553 17.5721 68.5635 17.6673 67.3789C17.7706 66.0894 17.4117 65.2394 17.3971 65.2039L16.9895 65.3164C17.0029 65.3489 18.3439 68.6215 14.7704 71.953L15.0974 72.1777Z" fill="white"/>
<path d="M96.8154 70.8175V60.2315H70.1461V70.8175C70.1461 73.5683 67.8594 75.7982 65.0393 75.7982H63.9643V77.165H102.998V75.7982H101.924C99.1036 75.7982 96.8154 73.5683 96.8154 70.8175Z" fill="#00A3FE"/>
<path d="M102.778 77.1651H64.1827C63.9562 77.1651 63.7393 77.093 63.5793 76.9647C63.4192 76.8366 63.329 76.6628 63.329 76.4815C63.329 76.3003 63.4192 76.1264 63.5793 75.9983C63.7393 75.8703 63.9562 75.7982 64.1827 75.7982H102.778C103.007 75.7982 103.222 75.8703 103.382 75.9983C103.543 76.1264 103.632 76.3003 103.632 76.4815C103.632 76.6628 103.543 76.8366 103.382 76.9647C103.222 77.093 103.007 77.1651 102.778 77.1651Z" fill="#016EB9"/>
<path d="M128.909 66.7305L38.7229 65.9022C37.7951 65.8934 36.909 65.5921 36.2568 65.0639C35.6046 64.5356 35.2386 63.8227 35.2383 63.0801V19.0079C35.2386 18.2669 35.6025 17.5559 36.252 17.0279C36.9013 16.5001 37.7841 16.1979 38.7095 16.1867L127.733 15.0949C128.665 15.0835 129.563 15.368 130.236 15.8862C130.905 16.4042 131.292 17.114 131.31 17.8598L132.473 63.8511C132.482 64.2291 132.399 64.605 132.223 64.9561C132.048 65.3071 131.786 65.6265 131.453 65.895C131.12 66.1636 130.724 66.3761 130.286 66.5194C129.852 66.663 129.382 66.7348 128.909 66.7305Z" fill="#016EB9"/>
<path d="M125.856 19.5347H40.6233C39.5795 19.5347 38.7333 20.2123 38.7333 21.0482V56.4767C38.7333 57.3123 39.5795 57.9899 40.6233 57.9899H125.856C126.897 57.9899 127.745 57.3123 127.745 56.4767V21.0482C127.745 20.2123 126.897 19.5347 125.856 19.5347Z" fill="#EAEAEA"/>
<path d="M92.5367 7.51653L93.6555 7.49244C93.7597 7.4903 93.8579 7.47217 93.9531 7.43902C94.0453 7.40563 94.1286 7.35817 94.2 7.29879C94.2685 7.23964 94.325 7.17 94.3607 7.09368C94.3964 7.0176 94.4143 6.93628 94.4113 6.85471L94.3756 5.76289C94.3696 5.59833 94.2833 5.44211 94.1346 5.32859C93.9828 5.21531 93.7835 5.15401 93.5782 5.15831L92.7867 5.17572C92.62 5.17905 92.4564 5.13947 92.3195 5.06267C92.1827 4.98611 92.0815 4.87641 92.028 4.75001C92.0071 4.70016 91.9863 4.65055 91.9625 4.60166C91.9089 4.48408 91.903 4.35649 91.9417 4.23534C91.9803 4.11442 92.0666 4.00591 92.1827 3.9241L92.7242 3.54466C92.8789 3.4359 92.9741 3.28255 92.989 3.11775C93.0009 2.95319 92.9325 2.79102 92.7986 2.66676L91.9 1.84587C91.8316 1.78434 91.7512 1.73401 91.659 1.69776C91.5668 1.66151 91.4685 1.64005 91.3674 1.63456C91.2662 1.62908 91.1621 1.63981 91.0669 1.66604C90.9717 1.69204 90.8824 1.7333 90.805 1.78696L90.2605 2.1664C90.1445 2.24892 89.9987 2.30091 89.8439 2.3157C89.6892 2.33049 89.5315 2.30735 89.3946 2.24916C89.3381 2.22507 89.2786 2.20122 89.2191 2.17881C89.0703 2.12061 88.9484 2.02522 88.871 1.90668C88.7936 1.78815 88.7668 1.65293 88.7936 1.52104L88.9186 0.894039C88.9513 0.731387 88.9037 0.564917 88.7817 0.431361C88.6597 0.297804 88.4782 0.207893 88.2759 0.181659L86.931 0.00779587C86.7287 -0.0181999 86.5204 0.0213914 86.3537 0.117981C86.1871 0.214571 86.0741 0.36029 86.0413 0.522943L85.8628 1.41014C85.839 1.52653 85.7735 1.63504 85.6753 1.72304C85.5771 1.81105 85.4492 1.87473 85.3064 1.90716C85.0594 1.96368 84.8184 2.03428 84.5833 2.11823C84.4316 2.1738 84.259 2.18882 84.0954 2.16092C83.9317 2.13301 83.7859 2.06385 83.6729 1.96345L83.0926 1.4316C83.0242 1.37007 82.9439 1.31975 82.8516 1.2835C82.7624 1.24725 82.6612 1.22578 82.56 1.2203C82.4589 1.21481 82.3577 1.22555 82.2595 1.25178C82.1643 1.27778 82.075 1.31904 81.9977 1.37294L80.9711 2.09176C80.8164 2.20051 80.7212 2.35386 80.7093 2.51842C80.6944 2.68298 80.7629 2.84492 80.8997 2.96893L81.6793 3.68465C81.7805 3.77361 81.8429 3.88332 81.8667 4.00066C81.8906 4.11824 81.8697 4.23844 81.8102 4.34743C81.7805 4.40037 81.7537 4.45427 81.7269 4.50793C81.6704 4.6205 81.5722 4.71733 81.4502 4.7865C81.3252 4.85542 81.1794 4.89382 81.0277 4.89644L79.7601 4.92315C79.5548 4.92768 79.3614 4.99732 79.2186 5.11729C79.0758 5.23701 79.0014 5.3968 79.0073 5.5616L79.043 6.65342C79.049 6.81822 79.1353 6.9742 79.2841 7.08772C79.4328 7.201 79.6322 7.2623 79.8375 7.25801L80.9265 7.23487C81.0901 7.23153 81.2479 7.26922 81.3847 7.34243C81.5186 7.41565 81.6198 7.52106 81.6763 7.64317V7.65152C81.7299 7.76933 81.7388 7.89741 81.7001 8.01904C81.6614 8.14067 81.5781 8.2499 81.4591 8.33242L80.6914 8.87094C80.6141 8.9246 80.5516 8.99019 80.507 9.0634C80.4594 9.13662 80.4326 9.21628 80.4266 9.29784C80.4207 9.37941 80.4326 9.46121 80.4653 9.53848C80.498 9.61599 80.5516 9.68754 80.6171 9.74883L81.5156 10.5707C81.5841 10.632 81.6644 10.6823 81.7567 10.7185C81.8489 10.7546 81.9471 10.776 82.0512 10.7815C82.1524 10.7868 82.2536 10.776 82.3488 10.7498C82.447 10.7236 82.5362 10.6823 82.6136 10.6286L83.3812 10.0901C83.4973 10.0071 83.6431 9.95489 83.8008 9.94011C83.9555 9.92532 84.1132 9.94869 84.2531 10.0074L84.262 10.0124C84.4078 10.0727 84.5238 10.1676 84.5952 10.284C84.6696 10.4004 84.6964 10.5323 84.6696 10.6608L84.497 11.5199C84.4822 11.6005 84.4852 11.683 84.509 11.7624C84.5328 11.8421 84.5744 11.9172 84.6339 11.9833C84.6934 12.0496 84.7708 12.1059 84.8571 12.1486C84.9434 12.1915 85.0416 12.2201 85.1398 12.233L86.4847 12.4061C86.69 12.4321 86.8982 12.3925 87.0649 12.2959C87.2315 12.1994 87.3416 12.0536 87.3773 11.891L87.5766 10.8903C87.6004 10.7708 87.6659 10.6592 87.7701 10.5697C87.8712 10.4801 88.0021 10.4166 88.1509 10.3868C88.2194 10.3727 88.2907 10.3577 88.3562 10.3413C88.499 10.3083 88.6508 10.3091 88.7906 10.3427C88.9335 10.3766 89.0584 10.4421 89.1566 10.5316L89.9392 11.2473C90.0046 11.3088 90.0879 11.3591 90.1772 11.3952C90.2694 11.4314 90.3706 11.4529 90.4718 11.4581C90.573 11.4636 90.6741 11.4529 90.7723 11.4266C90.8675 11.4004 90.9568 11.3591 91.0341 11.3052L92.0607 10.5864C92.138 10.5325 92.2005 10.4672 92.2452 10.394C92.2928 10.3207 92.3166 10.2413 92.3255 10.1598C92.3314 10.0782 92.3195 9.99663 92.2838 9.91912C92.2511 9.84185 92.2005 9.77054 92.1351 9.70901L91.5518 9.17645C91.4418 9.07557 91.3763 8.94893 91.3644 8.81537C91.3496 8.68181 91.3912 8.54873 91.4804 8.43521C91.6143 8.26111 91.7334 8.07985 91.8345 7.89264C91.894 7.78269 91.9922 7.68872 92.1172 7.62195C92.2422 7.55541 92.388 7.51868 92.5367 7.51653ZM88.8353 8.02596C87.6451 8.86164 85.2082 8.6241 84.1638 7.66988C83.1224 6.71543 83.539 5.10202 84.7291 4.27373C85.9223 3.44521 87.9545 3.88594 88.9959 4.84016C90.0403 5.79437 90.0284 7.19027 88.8353 8.02524V8.02596Z" fill="#00A3FE"/>
<path d="M86.7376 13.0994C86.6959 13.0997 86.6513 13.0968 86.6096 13.0911L85.2647 12.9179C85.1606 12.9051 85.0624 12.8755 84.9731 12.8316C84.8839 12.7875 84.8035 12.7298 84.744 12.6616C84.6815 12.5934 84.6369 12.5161 84.6131 12.434C84.5893 12.3522 84.5863 12.2673 84.6012 12.1841L84.7738 11.3253C84.8005 11.2003 84.7767 11.0722 84.7053 10.9592C84.6339 10.8462 84.5209 10.7536 84.381 10.6947H84.3691C84.2352 10.6387 84.0835 10.6165 83.9317 10.6313C83.78 10.6461 83.6371 10.6971 83.5241 10.7777L82.7564 11.316C82.6761 11.3716 82.5868 11.414 82.4856 11.441C82.3874 11.4679 82.2803 11.4789 82.1762 11.4734C82.072 11.4679 81.9679 11.446 81.8757 11.4088C81.7805 11.3713 81.6972 11.3198 81.6287 11.2564L80.7301 10.4338C80.6587 10.3706 80.6051 10.2971 80.5724 10.2175C80.5397 10.1376 80.5248 10.0534 80.5308 9.96945C80.5397 9.8855 80.5665 9.80346 80.6141 9.72809C80.6587 9.65273 80.7242 9.58548 80.8045 9.53015L81.5722 8.99186C81.6852 8.91078 81.7686 8.80417 81.8043 8.68612C81.84 8.56782 81.834 8.44333 81.7804 8.32909V8.32074C81.7269 8.20245 81.6287 8.10037 81.4978 8.0293C81.3669 7.95823 81.2121 7.92174 81.0544 7.92484L79.9684 7.94798C79.7571 7.95227 79.5518 7.88907 79.3971 7.77197C79.2424 7.6551 79.1531 7.49412 79.1472 7.32431L79.1115 6.23249C79.1055 6.06292 79.1859 5.8986 79.3317 5.77554C79.4774 5.65223 79.6768 5.58045 79.891 5.57568L81.1556 5.54849C81.3014 5.54611 81.4442 5.50914 81.5632 5.44212C81.6852 5.37534 81.7775 5.28138 81.834 5.17239C81.8608 5.11777 81.8876 5.06387 81.9173 5.01093C81.9739 4.90551 81.9947 4.78937 81.9709 4.67608C81.9501 4.56256 81.8876 4.45667 81.7924 4.37057L81.0098 3.65485C80.87 3.52702 80.7985 3.36007 80.8134 3.19074C80.8283 3.02117 80.9265 2.86305 81.0842 2.7512L82.1107 2.03214C82.1881 1.97657 82.2803 1.93412 82.3815 1.90717C82.4797 1.88022 82.5838 1.86925 82.6909 1.87473C82.7951 1.88046 82.8962 1.90264 82.9915 1.93984C83.0867 1.97729 83.17 2.02928 83.2384 2.09272L83.8186 2.62432C83.9258 2.7221 84.0716 2.78959 84.2293 2.81654C84.3899 2.84373 84.5536 2.82871 84.7024 2.77433C84.9374 2.69038 85.1784 2.61931 85.4254 2.56231C85.5652 2.53059 85.6872 2.46834 85.7824 2.38272C85.8806 2.2971 85.9431 2.19169 85.9669 2.07865L86.1455 1.19145C86.1782 1.02379 86.2942 0.873775 86.4668 0.774323C86.6364 0.674871 86.8506 0.634328 87.0619 0.661278L88.4068 0.834423C88.6151 0.861612 88.8025 0.954386 88.9275 1.092C89.0525 1.22985 89.1031 1.40132 89.0703 1.56922L88.9424 2.19527C88.9156 2.32334 88.9424 2.45475 89.0168 2.56994C89.0912 2.68513 89.2102 2.77767 89.356 2.83396C89.4155 2.85637 89.475 2.88046 89.5315 2.90431C89.6654 2.96012 89.8172 2.98206 89.9689 2.96727C90.1177 2.95249 90.2605 2.90169 90.3736 2.82155L90.9151 2.44211C91.0758 2.33049 91.2841 2.27421 91.4953 2.28542C91.7066 2.29687 91.903 2.37486 92.0428 2.50269L92.9414 3.32358C93.0098 3.38678 93.0634 3.46024 93.0991 3.5399C93.1318 3.61955 93.1467 3.70374 93.1378 3.78769C93.1318 3.87164 93.1051 3.95368 93.0574 4.02905C93.0098 4.10441 92.9474 4.1719 92.867 4.22723L92.3255 4.60739C92.2124 4.68681 92.1291 4.79223 92.0904 4.90933C92.0547 5.02667 92.0607 5.15044 92.1112 5.26421C92.135 5.31405 92.1559 5.36366 92.1767 5.41326C92.2273 5.5368 92.3255 5.64389 92.4594 5.71854C92.5903 5.79318 92.751 5.83158 92.9117 5.82753L93.7061 5.81012C93.9174 5.80582 94.1227 5.86903 94.2774 5.98589C94.4291 6.10251 94.5184 6.26349 94.5244 6.43306L94.5631 7.52489C94.569 7.69446 94.4886 7.85878 94.3428 7.98184C94.197 8.10514 93.9977 8.17693 93.7864 8.1817L92.6647 8.2065C92.5189 8.21008 92.382 8.24633 92.263 8.31073C92.144 8.37536 92.0488 8.46551 91.9922 8.57092C91.8881 8.75957 91.7691 8.94202 91.6352 9.11684C91.5489 9.22678 91.5072 9.35604 91.5221 9.48554C91.534 9.61505 91.5965 9.73787 91.7036 9.83589L92.2868 10.3685C92.3553 10.4317 92.4088 10.5053 92.4415 10.585C92.4743 10.6647 92.4891 10.7488 92.4832 10.8326C92.4742 10.9165 92.4475 10.9985 92.4029 11.0739C92.3553 11.1495 92.2898 11.2168 92.2124 11.2721L91.1799 11.9895C91.1026 12.0451 91.0103 12.0875 90.9092 12.1145C90.811 12.1414 90.7068 12.1524 90.5997 12.1469C90.4956 12.1412 90.3944 12.119 90.2992 12.0818C90.204 12.0443 90.1207 11.9924 90.0522 11.9289L89.2697 11.2134C89.1775 11.1269 89.0525 11.0634 88.9156 11.0307C88.7787 10.9981 88.633 10.9974 88.4931 11.0286C88.4247 11.0453 88.3532 11.061 88.2878 11.0751C88.145 11.1037 88.017 11.1653 87.9188 11.2521C87.8177 11.3389 87.7552 11.4469 87.7314 11.5628L87.532 12.5635C87.4993 12.7138 87.4041 12.8502 87.2583 12.9485C87.1125 13.0465 86.928 13.1002 86.7376 13.0994ZM84.021 10.5814C84.1489 10.5812 84.2769 10.6062 84.3899 10.6542L84.4018 10.6585C84.5476 10.7214 84.6666 10.8197 84.741 10.9399C84.8154 11.0598 84.8422 11.1955 84.8154 11.3277L84.6428 12.1867C84.6101 12.3441 84.6577 12.5054 84.7738 12.6351C84.8898 12.7646 85.0654 12.8521 85.2617 12.8784L86.6066 13.0505C86.803 13.0758 87.0053 13.0379 87.166 12.9447C87.3297 12.8516 87.4368 12.7109 87.4695 12.5535L87.6719 11.553C87.6957 11.4295 87.7641 11.3148 87.8683 11.2225C87.9724 11.1302 88.1093 11.0649 88.261 11.0343C88.3294 11.0203 88.4008 11.0055 88.4693 10.9888C88.6151 10.9549 88.7728 10.9554 88.9186 10.9902C89.0644 11.0248 89.1953 11.0925 89.2965 11.1853L90.079 11.9008C90.1445 11.9604 90.2218 12.0093 90.3111 12.0443C90.4004 12.0794 90.4956 12.1002 90.5938 12.1054C90.6949 12.1106 90.7931 12.1004 90.8853 12.0749C90.9806 12.0494 91.0669 12.0095 91.1413 11.9573L92.1678 11.2382C92.3166 11.1331 92.4088 10.9842 92.4237 10.8247C92.4356 10.6651 92.3701 10.508 92.2392 10.3875L91.656 9.85497C91.543 9.75099 91.4745 9.62053 91.4596 9.48292C91.4477 9.34531 91.4894 9.20794 91.5816 9.09108C91.7155 8.91769 91.8345 8.73691 91.9357 8.55017C91.9982 8.43832 92.0964 8.34268 92.2213 8.27399C92.3493 8.20555 92.4981 8.16715 92.6498 8.16334L93.7686 8.13853C93.9679 8.134 94.1584 8.06627 94.2953 7.95036C94.4321 7.83445 94.5065 7.67967 94.5005 7.51988L94.4648 6.42901C94.4589 6.26898 94.3756 6.1173 94.2298 6.00735C94.0869 5.89717 93.8936 5.83755 93.6942 5.8416L92.8997 5.85901C92.7272 5.86283 92.5605 5.82228 92.4177 5.74334C92.2779 5.6644 92.1737 5.55135 92.1202 5.4209C92.0993 5.37105 92.0785 5.32216 92.0547 5.27351C92.0012 5.15235 91.9923 5.02094 92.0339 4.89621C92.0726 4.77148 92.1589 4.65962 92.2809 4.5752L92.8224 4.19575C92.8968 4.14352 92.9593 4.08008 93.0009 4.00901C93.0456 3.93794 93.0723 3.86067 93.0783 3.78173C93.0842 3.70255 93.0723 3.62313 93.0396 3.54824C93.0098 3.47312 92.9592 3.40372 92.8938 3.34433L91.9952 2.52248C91.8643 2.40276 91.6768 2.32954 91.4775 2.31881C91.2781 2.30831 91.0817 2.36126 90.933 2.4662L90.3914 2.84564C90.2695 2.93054 90.1207 2.98421 89.96 2.99971C89.8023 3.01521 89.6387 2.99184 89.4958 2.93245C89.4393 2.9086 89.3827 2.88452 89.3232 2.8621C89.1685 2.80247 89.0406 2.70421 88.9632 2.58211C88.8829 2.46 88.8561 2.32048 88.8829 2.18454L89.0108 1.55825C89.0406 1.40085 88.993 1.23939 88.8769 1.10988C88.7609 0.980143 88.5854 0.892616 88.389 0.866621L87.0441 0.692758C86.8477 0.667716 86.6453 0.705636 86.4847 0.798887C86.324 0.8919 86.2139 1.03237 86.1812 1.18978L86.0026 2.07698C85.9759 2.19718 85.9104 2.30927 85.8092 2.40037C85.7081 2.49124 85.5742 2.55754 85.4284 2.59117C85.1844 2.64769 84.9434 2.71805 84.7113 2.80176C84.5536 2.859 84.378 2.8745 84.2114 2.8454C84.0418 2.81654 83.8901 2.74476 83.774 2.64101L83.1938 2.10917C83.1283 2.04955 83.051 2.0009 82.9617 1.9656C82.8725 1.93054 82.7772 1.90979 82.6761 1.90454C82.5779 1.8993 82.4797 1.90979 82.3875 1.93507C82.2922 1.96059 82.206 2.00066 82.1316 2.05289L81.105 2.77195C80.9563 2.87712 80.864 3.02594 80.8521 3.18549C80.8372 3.34481 80.9027 3.50198 81.0336 3.62265L81.8162 4.33814C81.9173 4.42972 81.9828 4.54205 82.0066 4.66249C82.0304 4.78293 82.0125 4.90647 81.9501 5.01832C81.9233 5.07055 81.8935 5.12421 81.8667 5.17811C81.8102 5.29473 81.709 5.3949 81.5811 5.46597C81.4502 5.53728 81.2984 5.57639 81.1437 5.5783L79.8762 5.60549C79.778 5.60764 79.6798 5.62529 79.5905 5.65748C79.5012 5.68968 79.4179 5.73571 79.3495 5.79318C79.284 5.85066 79.2305 5.9184 79.1948 5.99233C79.1591 6.06626 79.1412 6.1452 79.1442 6.22438L79.1799 7.31597C79.1858 7.476 79.2721 7.62768 79.415 7.73762C79.5608 7.84781 79.7542 7.90743 79.9535 7.90338L81.0425 7.88025C81.2092 7.87643 81.3728 7.91506 81.5127 7.99043C81.6495 8.06579 81.7567 8.17407 81.8132 8.30023V8.30667C81.8697 8.4283 81.8786 8.56067 81.837 8.68612C81.7983 8.81156 81.712 8.92461 81.59 9.00999L80.8194 9.54851C80.745 9.6005 80.6855 9.66394 80.6409 9.73501C80.5962 9.80608 80.5724 9.88335 80.5665 9.96253C80.5575 10.0415 80.5724 10.1209 80.6022 10.196C80.6349 10.2711 80.6855 10.3403 80.751 10.3999L81.6495 11.2215C81.715 11.2814 81.7924 11.3301 81.8816 11.3651C81.9709 11.4004 82.0691 11.4212 82.1673 11.4264C82.2655 11.4317 82.3636 11.4212 82.4589 11.3956C82.5511 11.3701 82.6374 11.3303 82.7118 11.2781L83.4794 10.7395C83.6282 10.6353 83.8216 10.5788 84.021 10.5814Z" fill="#131F2D"/>
<path d="M117.632 30.0404H94.0899V29.3256L117.632 29.4928V30.0404Z" fill="#657285"/>
<path d="M104.605 31.649H94.0899V30.9342L104.605 31.1024V31.649Z" fill="#00A3FE"/>
<path d="M108.018 35.1298H94.0899V34.4141L108.018 34.5822V35.1298Z" fill="#00A3FE"/>
<path d="M104.605 33.5162H94.0899V32.8011L104.605 32.9693V33.5162Z" fill="#5C305D"/>
<path d="M112.273 33.5162H106.111V32.8011L112.273 32.9693V33.5162Z" fill="#657285"/>
<path d="M116.623 31.649H106.111V30.9342L116.623 31.1024V31.649Z" fill="#00A3FE"/>
<path d="M60.9579 38.7618H46.6364C45.722 38.7618 44.9809 39.3552 44.9809 40.0871V47.2582C44.9809 47.9901 45.722 48.5835 46.6364 48.5835H60.9579C61.8723 48.5835 62.6131 47.9901 62.6131 47.2582V40.0871C62.6131 39.3552 61.8723 38.7618 60.9579 38.7618Z" fill="#D5D6DA"/>
<path d="M61.4453 54.0405C61.3509 58.1299 60.9826 63.7278 59.8219 68.6365C57.8884 76.8271 45.9824 82.4463 43.7859 83.4212C43.6788 83.4687 43.5592 83.4954 43.4369 83.4992C43.3146 83.5028 43.1929 83.4837 43.0816 83.4429C24.4591 76.5934 24.7498 66.1846 24.7498 66.1846V53.9594C24.7498 53.7943 24.8307 53.6357 24.9753 53.5182C25.1199 53.4006 25.3166 53.3333 25.5225 53.3307C28.3584 53.2933 38.248 52.8659 42.5704 48.8012C42.6409 48.7357 42.7278 48.6825 42.8254 48.6453C42.923 48.6078 43.0292 48.5871 43.1376 48.5845C43.2456 48.5816 43.3533 48.5966 43.4535 48.6291C43.5541 48.6612 43.6452 48.7097 43.7207 48.7714C45.5831 50.2866 51.6539 54.4869 61.4119 54.0421L61.4453 54.0405Z" fill="#00A3FE"/>
<path d="M43.392 81.4307C43.3798 81.4305 43.3678 81.4286 43.3565 81.425C39.5599 80.0549 36.3359 78.4016 33.7723 76.508C31.7207 74.9931 30.0863 73.3215 28.9098 71.538C26.9112 68.5032 26.9525 66.1681 26.9525 66.1447V55.8983C26.9502 55.6188 27.0846 55.3495 27.3271 55.1483C27.5696 54.947 27.9008 54.8299 28.2498 54.8215C29.6423 54.7834 32.3994 54.636 35.2073 54.0695C38.5571 53.3934 41.0268 52.33 42.5529 50.9102C42.624 50.843 42.7118 50.7886 42.8108 50.7502C42.9099 50.7118 43.0176 50.6906 43.1277 50.6875C43.2375 50.6846 43.347 50.7001 43.4491 50.733C43.5508 50.7659 43.6431 50.8155 43.7198 50.8787C44.7544 51.7302 47.5365 53.7993 51.0993 54.6152C53.3139 55.1103 55.5931 55.3968 57.8905 55.4693C58.2312 55.4807 58.5525 55.5985 58.7861 55.7974C59.0194 55.9966 59.1461 56.2608 59.139 56.5337C58.9902 61.3114 58.5576 65.1616 57.8149 68.3043C57.3864 70.1159 56.3664 71.9339 54.7731 73.7066C53.5017 75.1223 51.8682 76.513 49.9168 77.84C47.9111 79.2049 45.7387 80.4043 43.4321 81.42C43.4199 81.4262 43.4062 81.43 43.392 81.4307ZM43.1548 50.8265H43.1343C43.0477 50.8289 42.9626 50.8456 42.8843 50.8756C42.8064 50.9055 42.7368 50.9479 42.6799 51.0004C41.1366 52.4435 38.6381 53.521 35.2529 54.2036C32.4295 54.7736 29.6599 54.9217 28.2591 54.9598C27.955 54.9672 27.6666 55.0693 27.4551 55.2446C27.2438 55.4197 27.126 55.6541 27.1272 55.8976V66.149C27.1272 66.1738 27.087 68.4798 29.0693 71.4858C30.233 73.2511 31.8564 74.9087 33.8946 76.4119C36.4344 78.2864 39.628 79.9266 43.3887 81.286C45.6712 80.2771 47.8221 79.0885 49.8094 77.7372C52.8551 75.6666 56.6881 72.3425 57.6474 68.2811C58.388 65.1466 58.8194 61.3033 58.9685 56.5329C58.9732 56.2959 58.8628 56.0669 58.6602 55.894C58.4576 55.7214 58.1788 55.6186 57.883 55.6076C55.5732 55.5344 53.2818 55.246 51.0549 54.7488C47.4526 53.9202 44.6404 51.8353 43.5999 50.9756C43.5422 50.9279 43.4729 50.8902 43.3964 50.8644C43.32 50.8389 43.2378 50.826 43.1548 50.8265Z" fill="#131F2D"/>
<path d="M47.3841 71.1951H35.5995C35.0749 71.1948 34.5721 71.0276 34.2014 70.7307C33.8303 70.4338 33.6217 70.0312 33.6214 69.6115V63.7898C33.6217 63.3698 33.83 62.967 34.201 62.6699C34.5718 62.3729 35.0746 62.2058 35.5995 62.2053H36.2636C36.5478 61.2668 37.2179 60.4318 38.1662 59.8349C39.1144 59.2377 40.2856 58.9131 41.4918 58.9131C42.6981 58.9131 43.8695 59.2377 44.8175 59.8349C45.7658 60.4318 46.4359 61.2668 46.72 62.2053H47.3841C47.909 62.2058 48.4122 62.3727 48.7832 62.6699C49.1542 62.967 49.3628 63.3698 49.3634 63.7898V69.6115C49.3625 70.0315 49.1536 70.434 48.7829 70.731C48.4119 71.0276 47.9087 71.1948 47.3841 71.1951ZM35.5995 62.3412C35.1199 62.3417 34.6602 62.4946 34.3213 62.7662C33.9821 63.0379 33.7916 63.4059 33.791 63.7898V69.6115C33.7916 69.9952 33.9824 70.3632 34.3213 70.6348C34.6602 70.9062 35.1199 71.0589 35.5995 71.0594H47.3841C47.8638 71.0589 48.3235 70.9062 48.6627 70.6348C49.0019 70.3634 49.1929 69.9954 49.1938 69.6115V63.7898C49.1932 63.4059 49.0025 63.0376 48.6633 62.766C48.3238 62.4943 47.8641 62.3415 47.3841 62.3412H46.6528C46.6337 62.3412 46.615 62.336 46.6001 62.3267C46.5849 62.3171 46.5745 62.3038 46.57 62.289C46.3055 61.3691 45.6593 60.5485 44.7369 59.9608C43.8145 59.3732 42.6707 59.0531 41.4918 59.0531C40.313 59.0531 39.1692 59.3732 38.2468 59.9608C37.3244 60.5485 36.6781 61.3691 36.4136 62.289C36.4094 62.304 36.3987 62.3174 36.3839 62.3267C36.3687 62.3362 36.3499 62.3412 36.3309 62.3412H35.5995ZM45.2995 62.3412H37.685C37.6719 62.3412 37.6588 62.3388 37.6469 62.3341C37.635 62.3293 37.6246 62.3224 37.6169 62.3138C37.6089 62.3052 37.6035 62.2954 37.6011 62.2849C37.599 62.2744 37.5996 62.2635 37.6035 62.2532C37.8621 61.5895 38.3786 61.0092 39.0781 60.5974C39.7777 60.1852 40.6233 59.963 41.4918 59.963C42.3604 59.963 43.206 60.1852 43.9055 60.5974C44.6051 61.0092 45.1219 61.5895 45.3802 62.2532C45.3843 62.2635 45.3855 62.2742 45.3834 62.2847C45.3811 62.2952 45.376 62.3052 45.368 62.3138C45.3602 62.3224 45.3498 62.3293 45.3379 62.3341C45.326 62.3388 45.3129 62.3412 45.2995 62.3412ZM37.802 62.2053H45.1838C44.9193 61.5902 44.4215 61.0567 43.76 60.6789C43.0986 60.3011 42.3065 60.098 41.4939 60.098C40.6813 60.098 39.8892 60.3011 39.2278 60.6789C38.5664 61.0567 38.0686 61.5902 37.804 62.2053H37.802Z" fill="#131F2D"/>
<path d="M48.5318 61.3522H37.4297C36.308 61.3522 35.3987 62.0801 35.3987 62.978V68.5802C35.3987 69.4782 36.308 70.206 37.4297 70.206H48.5318C49.6532 70.206 50.5625 69.4782 50.5625 68.5802V62.978C50.5625 62.0801 49.6532 61.3522 48.5318 61.3522Z" fill="#131F2D"/>
<path d="M42.981 66.5425C41.9334 66.5425 40.9092 66.294 40.038 65.828C39.1665 65.362 38.4875 64.6997 38.0864 63.9248C37.6853 63.1497 37.5806 62.2969 37.7847 61.4743C37.9891 60.6515 38.4938 59.8957 39.2346 59.3026C39.9755 58.7094 40.9193 58.3054 41.9471 58.1418C42.9745 57.9782 44.0397 58.0622 45.0076 58.3834C45.9755 58.7044 46.803 59.2482 47.3847 59.9458C47.9667 60.6432 48.2773 61.4633 48.2771 62.3021C48.2756 63.4264 47.7171 64.5041 46.7242 65.299C45.7312 66.0939 44.3852 66.5411 42.981 66.5425ZM42.981 59.1089C42.1922 59.1089 41.421 59.2959 40.7652 59.6467C40.1091 59.9976 39.5976 60.4962 39.2956 61.0796C38.9936 61.6632 38.9145 62.3052 39.0683 62.9246C39.2221 63.5442 39.6018 64.1132 40.1597 64.5599C40.7173 65.0066 41.4278 65.3107 42.2018 65.434C42.9754 65.5573 43.7773 65.4941 44.5063 65.2525C45.2349 65.0107 45.858 64.6014 46.2963 64.0763C46.7346 63.5511 46.9685 62.9339 46.9685 62.3021C46.9673 61.4557 46.5468 60.6441 45.7994 60.0455C45.052 59.4469 44.0385 59.1101 42.981 59.1089Z" fill="#131F2D"/>
<path d="M42.981 66.1249C42.8346 66.1247 42.6945 66.078 42.5909 65.9952C42.4874 65.9122 42.4291 65.7999 42.4288 65.6825V63.538C42.4291 63.4209 42.4874 63.3086 42.5909 63.2256C42.6945 63.1426 42.8346 63.0961 42.981 63.0958C43.1274 63.0963 43.2676 63.1431 43.3708 63.2258C43.4741 63.3088 43.5324 63.4209 43.5327 63.538V65.6825C43.5324 65.7996 43.4741 65.912 43.3708 65.995C43.2676 66.0777 43.1274 66.1245 42.981 66.1249Z" fill="#00A3FE"/>
<path d="M70.058 35.8453C70.0253 35.8453 69.9932 35.8391 69.964 35.8272L67.841 34.9774C67.816 34.9676 67.7934 34.954 67.7752 34.9376C67.7568 34.9209 67.7428 34.9013 67.7339 34.8803C67.7253 34.8591 67.7217 34.8369 67.7241 34.8148C67.7261 34.7926 67.7339 34.7709 67.7467 34.7511C67.7589 34.731 67.7758 34.7132 67.7967 34.6984C67.8175 34.6838 67.8416 34.6726 67.8681 34.6655C67.8943 34.6585 67.9222 34.6557 67.9499 34.6576C67.9776 34.6593 68.0046 34.6655 68.0293 34.6757L70.1553 35.524C70.2023 35.5383 70.241 35.5658 70.2648 35.6011C70.2883 35.6366 70.2949 35.6779 70.2833 35.717C70.272 35.7561 70.2431 35.7904 70.202 35.8138C70.1613 35.8372 70.111 35.8477 70.0613 35.8436L70.058 35.8453Z" fill="#131F2D"/>
<path d="M67.0412 37.8856C66.9853 37.887 66.9311 37.8706 66.8904 37.84C66.8496 37.8095 66.8258 37.7671 66.824 37.7225C66.8222 37.6776 66.8428 37.6342 66.8808 37.6015C66.9192 37.5691 66.9719 37.5498 67.0278 37.5484L69.3865 37.4208C69.4424 37.4179 69.4972 37.4325 69.5394 37.462C69.5814 37.4914 69.6073 37.5329 69.6111 37.5775C69.615 37.6221 69.5965 37.6659 69.5599 37.6998C69.523 37.7334 69.4713 37.7542 69.4156 37.7573L67.0558 37.8846L67.0412 37.8856Z" fill="#131F2D"/>
<path d="M68.3757 40.7168C68.3281 40.7189 68.2811 40.7079 68.2424 40.6855C68.2037 40.6631 68.176 40.6307 68.1638 40.5937C68.1516 40.5567 68.1558 40.5176 68.1758 40.4828C68.1954 40.448 68.2296 40.4198 68.2725 40.4029L70.324 39.438C70.3478 39.4267 70.374 39.4194 70.4014 39.4163C70.4288 39.4131 70.4565 39.4143 70.4832 39.4201C70.51 39.4255 70.535 39.4353 70.557 39.4484C70.579 39.4618 70.5975 39.4785 70.6115 39.4976C70.6254 39.5164 70.6347 39.5376 70.6385 39.5593C70.6424 39.5813 70.6409 39.6037 70.6338 39.6249C70.6269 39.6464 70.6147 39.6664 70.5984 39.6841C70.5817 39.7017 70.5609 39.7165 70.5371 39.7277L68.4864 40.6927C68.4531 40.7086 68.4147 40.717 68.3757 40.7168Z" fill="#131F2D"/>
<path d="M76.9587 35.8453C76.9194 35.8458 76.881 35.8369 76.8474 35.8205C76.8141 35.8038 76.7873 35.7802 76.7704 35.7518C76.7576 35.732 76.7498 35.7105 76.7474 35.6884C76.7454 35.6662 76.7486 35.6438 76.7576 35.6228C76.7662 35.6015 76.7802 35.5822 76.7986 35.5655C76.8171 35.5488 76.8394 35.5352 76.8647 35.5257L78.9894 34.6774C79.0162 34.6676 79.043 34.6616 79.0698 34.6602C79.0966 34.6588 79.1263 34.6616 79.1501 34.6686C79.1769 34.6757 79.2007 34.6867 79.2215 34.7012C79.2424 34.7158 79.2602 34.7334 79.2721 34.7532C79.284 34.773 79.293 34.7945 79.293 34.8167C79.2959 34.8386 79.293 34.8608 79.284 34.8818C79.2751 34.9028 79.2602 34.9221 79.2424 34.9388C79.2245 34.9555 79.2037 34.9691 79.1769 34.9788L77.0486 35.8255C77.0209 35.8374 76.9903 35.8443 76.9587 35.8453Z" fill="#131F2D"/>
<path d="M79.9743 37.8856H79.9595L77.6011 37.758C77.5455 37.7549 77.4934 37.7342 77.4568 37.7005C77.4202 37.6669 77.4017 37.6228 77.4056 37.5782C77.4095 37.5336 77.4351 37.4921 77.4773 37.4628C77.5193 37.4334 77.5743 37.4186 77.63 37.4217L79.9892 37.5493C80.0458 37.5508 80.0963 37.5698 80.135 37.6025C80.1737 37.6352 80.1945 37.6786 80.1915 37.7232C80.1915 37.768 80.1677 37.8102 80.1261 37.8408C80.0844 37.8715 80.0309 37.8877 79.9743 37.8863V37.8856Z" fill="#131F2D"/>
<path d="M78.6407 40.7168C78.6044 40.7163 78.5687 40.7079 78.5375 40.6927L76.4868 39.7277C76.463 39.7165 76.4425 39.7017 76.4258 39.6841C76.4091 39.6664 76.3969 39.6464 76.3901 39.6249C76.3832 39.6037 76.3815 39.5813 76.3853 39.5593C76.3892 39.5376 76.3984 39.5164 76.4124 39.4976C76.4264 39.4785 76.4448 39.4618 76.4668 39.4484C76.4889 39.4353 76.5142 39.4255 76.5406 39.4201C76.5674 39.4143 76.5954 39.4131 76.6225 39.4163C76.6498 39.4194 76.6763 39.4267 76.7001 39.438L78.7475 40.4012C78.7901 40.4182 78.8243 40.4463 78.8442 40.4811C78.8645 40.5159 78.8675 40.5551 78.8556 40.592C78.8437 40.629 78.816 40.6614 78.7773 40.6838C78.7386 40.7063 78.6916 40.7172 78.644 40.7151L78.6407 40.7168Z" fill="#131F2D"/>
<path d="M77.7314 36.9223C77.7314 39.1091 75.92 40.8983 73.6438 41.0058C73.5694 41.0092 73.495 41.0108 73.4203 41.0108C71.0408 41.0108 69.1095 39.1802 69.1095 36.9223C69.0996 36.013 69.4299 35.1219 70.058 34.3642C70.8474 33.4308 72.0599 32.8326 73.4203 32.8326C73.7925 32.8331 74.1627 32.8782 74.5182 32.9669C75.4493 33.2135 76.2476 33.7062 76.7829 34.3642C77.4107 35.1219 77.7413 36.013 77.7314 36.9223Z" fill="#657285"/>
<path d="M77.7314 36.9221C77.7314 39.1091 75.92 40.8983 73.6438 41.0058C73.3495 40.3304 73.1388 39.6335 73.0148 38.925C72.7541 37.4556 72.8648 36.0623 73.2641 34.9292C73.5468 34.1224 73.9761 33.4465 74.518 32.9669C75.449 33.2135 76.2476 33.7063 76.7829 34.3643C77.4107 35.122 77.7413 36.013 77.7314 36.9221Z" fill="#657285"/>
<path d="M73.4203 35.8968C75.2773 35.8968 76.7829 35.2109 76.7829 34.3652C76.7829 33.5193 75.2773 32.8336 73.4203 32.8336C71.5633 32.8336 70.058 33.5193 70.058 34.3652C70.058 35.2109 71.5633 35.8968 73.4203 35.8968Z" fill="#131F2D"/>
<path d="M72.4768 33.3645C72.422 33.3645 72.3693 33.3471 72.3307 33.3161C72.2917 33.2848 72.27 33.2428 72.27 33.199C72.2307 31.919 70.7563 31.4005 70.7409 31.3955C70.6894 31.3781 70.6489 31.3447 70.6278 31.3032C70.607 31.2617 70.6076 31.2152 70.6296 31.1739C70.6516 31.1329 70.693 31.1002 70.7451 31.0835C70.7968 31.0668 70.8548 31.0673 70.9063 31.085C70.9777 31.1098 72.6455 31.6962 72.6901 33.1906C72.6913 33.2128 72.6865 33.2352 72.6767 33.256C72.6669 33.277 72.6517 33.296 72.6324 33.312C72.613 33.3282 72.5898 33.3409 72.5642 33.3497C72.5386 33.3583 72.511 33.3628 72.483 33.3628L72.4768 33.3645Z" fill="#131F2D"/>
<path d="M74.2171 33.7978C74.1645 33.7978 74.1136 33.7819 74.0752 33.7532C74.0368 33.7244 74.0136 33.685 74.01 33.6428C73.8312 31.8389 75.3674 31.1248 75.4326 31.095C75.4811 31.073 75.5388 31.0673 75.5924 31.0793C75.6462 31.0912 75.6918 31.1198 75.7191 31.1587C75.7468 31.1975 75.7537 31.2436 75.7388 31.2867C75.7239 31.3297 75.6882 31.3662 75.6397 31.3881C75.5817 31.4148 74.2728 32.0351 74.429 33.6163C74.4317 33.6385 74.4287 33.6607 74.4204 33.6817C74.412 33.7029 74.3983 33.7225 74.3805 33.7392C74.3626 33.7561 74.3406 33.7697 74.3159 33.7797C74.2912 33.7897 74.2641 33.7955 74.2368 33.7969L74.2171 33.7978Z" fill="#131F2D"/>
</svg>
