<svg width="162" height="101" viewBox="0 0 162 101" fill="none" xmlns="http://www.w3.org/2000/svg">
<path d="M25.988 26.0984C26.1898 24.5425 26.8791 23.0529 27.9918 21.7681C29.1044 20.4833 30.6042 19.4452 32.3514 18.7502C34.0986 18.0552 36.0368 17.7261 37.9854 17.7934C39.9338 17.8606 41.8294 18.3223 43.4957 19.1354C45.006 18.2839 46.763 17.7569 48.5992 17.6042C50.4354 17.4514 52.2897 17.6782 53.9857 18.2627C55.6817 18.8475 57.1629 19.7705 58.2882 20.9441C59.4138 22.1177 60.1461 23.5029 60.4156 24.9675C63.1638 25.4795 65.581 26.7846 67.2071 28.6339C68.8332 30.4831 69.5545 32.7476 69.2334 34.9959C68.9124 37.2442 67.5716 39.3193 65.4665 40.8259C63.3611 42.3325 60.6385 43.1653 57.8172 43.1658H30.1656C27.6031 43.1672 25.1197 42.4543 23.1407 41.1486C21.1616 39.8431 19.81 38.0265 19.3172 36.0095C18.8245 33.9926 19.2213 31.901 20.4397 30.093C21.6582 28.2847 23.6224 26.8728 25.996 26.0984H25.988Z" fill="#66C5FF"/>
<path opacity="0.6" d="M54.1553 33.1392C54.429 32.0832 54.429 30.9933 54.1553 29.9372L52.5923 29.7596C52.417 29.2446 52.1611 28.7495 51.8309 28.2861L52.7773 27.2716C52.043 26.3691 51.0825 25.5988 49.9575 25.0097L48.6965 25.7624C48.1166 25.4981 47.4983 25.2919 46.8556 25.1485L46.6381 23.8981C45.3188 23.6784 43.9572 23.6784 42.6379 23.8981L42.4162 25.1485C41.7735 25.2919 41.1552 25.4981 40.5753 25.7624L39.3101 25.0033C38.1872 25.5945 37.2276 26.3644 36.4903 27.2649L37.4371 28.2828C37.1065 28.7462 36.8509 29.2413 36.6756 29.7562L35.1126 29.9339C34.8386 30.9899 34.8386 32.0801 35.1126 33.1361L36.6756 33.3172C36.8518 33.8311 37.1092 34.3253 37.4409 34.7872L36.4903 35.8082C37.2276 36.709 38.1872 37.4789 39.3101 38.0701L40.5753 37.3076C41.1552 37.5709 41.7735 37.776 42.4162 37.9182L42.6379 39.1753C43.9557 39.3949 45.3161 39.3949 46.6339 39.1753L46.8556 37.9182C47.4983 37.776 48.1166 37.5709 48.6965 37.3076L49.9617 38.0701C51.0846 37.4789 52.0442 36.709 52.7815 35.8082L51.8309 34.7906C52.162 34.3269 52.4191 33.8321 52.5961 33.3172L54.1553 33.1392ZM44.6279 35.3172C43.6986 35.3179 42.7902 35.0973 42.0172 34.6837C41.2442 34.2702 40.6413 33.6821 40.2852 32.9935C39.929 32.3052 39.8356 31.5475 40.0165 30.8166C40.1971 30.0856 40.6443 29.414 41.301 28.8867C41.9577 28.3594 42.7947 28.0002 43.7061 27.8547C44.6171 27.709 45.5619 27.7834 46.4206 28.0684C47.279 28.3536 48.0127 28.8363 48.529 29.4562C49.0455 30.0758 49.3211 30.8044 49.3211 31.5497C49.3216 32.0441 49.2005 32.5339 48.9649 32.9911C48.7292 33.4481 48.3838 33.8636 47.9479 34.2134C47.512 34.5633 46.9945 34.8409 46.4247 35.0303C45.8552 35.2196 45.2444 35.3172 44.6279 35.3172Z" fill="white"/>
<path d="M89.0098 17.3679C89.2127 15.8122 89.9028 14.3232 91.0156 13.0389C92.1284 11.7545 93.6277 10.7167 95.3749 10.0219C97.1218 9.32713 99.0594 8.99789 101.007 9.06479C102.956 9.13169 104.851 9.59255 106.518 10.4046C108.029 9.55415 109.786 9.02789 111.622 8.87583C113.458 8.72377 115.312 8.95096 117.007 9.53581C118.703 10.1206 120.184 11.0437 121.31 12.2172C122.435 13.3906 123.167 14.7755 123.437 16.2401C126.186 16.7523 128.603 18.0574 130.229 19.9071C131.856 21.7569 132.577 24.0216 132.255 26.2702C131.934 28.5187 130.592 30.5938 128.486 32.1001C126.38 33.6065 123.657 34.4386 120.835 34.4383H93.1832C90.6213 34.4386 88.1389 33.7248 86.1605 32.4192C84.1824 31.1135 82.831 29.2971 82.3379 27.2807C81.8449 25.2642 82.2409 23.1731 83.4579 21.3648C84.6749 19.5566 86.6375 18.1437 89.0098 17.3679Z" fill="#66C5FF"/>
<g opacity="0.6">
<path d="M102.3 25.2196C102.3 23.9756 103.13 23.2809 104.241 23.2809C105.353 23.2809 106.183 23.9885 106.183 25.2196C106.183 26.4507 105.353 27.1583 104.241 27.1583C103.13 27.1583 102.3 26.4636 102.3 25.2196ZM105.502 25.2196C105.502 24.2503 104.983 23.7526 104.241 23.7526C103.5 23.7526 102.977 24.2439 102.977 25.2196C102.977 26.1955 103.496 26.6866 104.241 26.6866C104.987 26.6866 105.498 26.1955 105.498 25.2196H105.502Z" fill="white"/>
<path d="M106.836 25.2196C106.836 23.9756 107.666 23.2809 108.782 23.2809C109.898 23.2809 110.719 23.9885 110.719 25.2196C110.719 26.4507 109.89 27.1583 108.782 27.1583C107.674 27.1583 106.836 26.4636 106.836 25.2196ZM110.039 25.2196C110.039 24.2503 109.523 23.7526 108.782 23.7526C108.041 23.7526 107.517 24.2439 107.517 25.2196C107.517 26.1955 108.032 26.6866 108.782 26.6866C109.531 26.6866 110.039 26.1955 110.039 25.2196Z" fill="white"/>
<path d="M112.83 23.31V27.1292H112.157V23.785H111.082V23.31H112.83Z" fill="white"/>
<path d="M113.874 25.2196C113.874 23.9756 114.704 23.2809 115.819 23.2809C116.935 23.2809 117.757 23.9885 117.757 25.2196C117.757 26.4507 116.927 27.1583 115.819 27.1583C114.712 27.1583 113.874 26.4636 113.874 25.2196ZM117.076 25.2196C117.076 24.2503 116.561 23.7526 115.819 23.7526C115.078 23.7526 114.554 24.2439 114.554 25.2196C114.554 26.1955 115.07 26.6866 115.819 26.6866C116.569 26.6866 117.076 26.1955 117.076 25.2196Z" fill="white"/>
<path d="M119.868 23.31V27.1292H119.195V23.785H118.124V23.31H119.868Z" fill="white"/>
<path d="M120.907 25.2196C120.907 23.9756 121.737 23.2809 122.853 23.2809C123.969 23.2809 124.791 23.9885 124.791 25.2196C124.791 26.4507 123.961 27.1583 122.853 27.1583C121.745 27.1583 120.907 26.4636 120.907 25.2196ZM124.11 25.2196C124.11 24.2503 123.594 23.7526 122.853 23.7526C122.112 23.7526 121.588 24.2439 121.588 25.2196C121.588 26.1955 122.104 26.6866 122.853 26.6866C123.603 26.6866 124.11 26.1955 124.11 25.2196Z" fill="white"/>
<path d="M126.902 23.31V27.1292H126.229V23.785H125.154V23.31H126.902Z" fill="white"/>
</g>
<path d="M53.0033 66.9829C53.003 64.8866 52.1695 62.8448 50.6247 61.1542C49.0795 59.4632 46.9027 58.2114 44.4104 57.5801C44.1623 56.011 43.4187 54.5185 42.2502 53.2445C41.0815 51.9702 39.5268 50.9564 37.7329 50.2993C35.9393 49.6421 33.966 49.363 32.0001 49.4887C30.0342 49.6144 28.141 50.1407 26.4997 51.0177C24.858 50.1407 22.9646 49.6146 20.9985 49.4889C19.0325 49.3635 17.0591 49.6423 15.2651 50.2996C13.4711 50.9569 11.916 51.9705 10.747 53.2445C9.57793 54.5185 8.83379 56.0108 8.58493 57.5801C5.78734 58.2898 3.39855 59.7788 1.85033 61.7778C0.302108 63.7771 -0.30339 66.1544 0.143281 68.4804C0.589951 70.8065 2.05932 72.9276 4.2858 74.4604C6.51228 75.9932 9.34897 76.8365 12.2831 76.8382H40.9821C44.1941 76.7815 47.2508 75.7185 49.4979 73.8764C51.7446 72.0345 53.003 69.5599 53.0033 66.9829Z" fill="#24A7FF"/>
<path d="M26.3949 50.9788C24.751 50.1203 22.8622 49.6106 20.9055 49.4975C18.9488 49.3847 16.9885 49.6724 15.2083 50.3335C13.4281 50.9946 11.8865 52.0074 10.728 53.2774C9.56948 54.5472 8.83207 56.032 8.58493 57.5932C5.78734 58.3027 3.39855 59.7916 1.85033 61.7909C0.302108 63.79 -0.30339 66.1675 0.143281 68.4933C0.589951 70.8194 2.05932 72.9405 4.2858 74.4733C6.51228 76.0061 9.34897 76.8497 12.2831 76.8511H20.9001L26.3949 50.9788Z" fill="#3BB0FF"/>
<path d="M56.4232 72.0366H25.0695V73.9074H56.4232V72.0366Z" fill="#3D4959"/>
<path d="M56.4232 62.9665H25.0695V64.8374H56.4232V62.9665Z" fill="#3D4959"/>
<path d="M57.8252 73.4454H23.5306C22.6384 73.4454 21.9152 74.0254 21.9152 74.7411V80.5604C21.9152 81.2761 22.6384 81.8561 23.5306 81.8561H57.8252C58.7173 81.8561 59.4406 81.2761 59.4406 80.5604V74.7411C59.4406 74.0254 58.7173 73.4454 57.8252 73.4454Z" fill="#D6E0EA"/>
<path d="M37.4894 73.4454L35.7812 81.8466H23.5306C23.1033 81.8466 22.6934 81.7104 22.3912 81.4679C22.089 81.2255 21.9192 80.8969 21.9192 80.5539V74.7378C21.9192 74.3951 22.089 74.0662 22.3912 73.8239C22.6934 73.5816 23.1033 73.4454 23.5306 73.4454H37.4894Z" fill="#EDEDED"/>
<path d="M57.1322 80.0047V75.2968H24.2235V80.0047H57.1322Z" fill="#3D4959"/>
<path d="M54.5379 77.646C54.5388 77.8065 54.4802 77.9637 54.3695 78.0975C54.2588 78.2313 54.1011 78.3357 53.9167 78.3975C53.7319 78.4595 53.5284 78.4759 53.332 78.4449C53.1356 78.4142 52.955 78.3371 52.8134 78.2239C52.6714 78.1106 52.5747 77.966 52.5354 77.8086C52.4962 77.6512 52.5158 77.4879 52.5923 77.3395C52.6687 77.1912 52.7982 77.0643 52.9645 76.9751C53.1308 76.8857 53.3266 76.8382 53.5269 76.8382C53.7944 76.8382 54.0508 76.9231 54.2404 77.0746C54.4299 77.226 54.5367 77.4313 54.5379 77.646Z" fill="#24A7FF"/>
<path d="M50.1711 77.646C50.1711 77.7834 50.1203 77.9176 50.025 78.0319C49.9298 78.1461 49.7947 78.2351 49.6365 78.2878C49.4782 78.3403 49.3041 78.3541 49.136 78.3274C48.9679 78.3004 48.8137 78.2344 48.6926 78.1371C48.5712 78.04 48.4888 77.9162 48.4555 77.7815C48.4222 77.6467 48.4391 77.507 48.5049 77.3801C48.5703 77.2532 48.6813 77.1447 48.8239 77.0684C48.9661 76.992 49.1336 76.9513 49.305 76.9513C49.5347 76.9513 49.7549 77.0245 49.9173 77.1547C50.0798 77.2849 50.1711 77.4616 50.1711 77.646Z" fill="#24A7FF"/>
<path d="M45.9493 77.646C45.9493 77.7834 45.8984 77.9176 45.8032 78.0319C45.708 78.1461 45.5729 78.2351 45.4146 78.2878C45.2563 78.3403 45.0822 78.3541 44.9141 78.3274C44.746 78.3004 44.5919 78.2344 44.4708 78.1371C44.3494 78.04 44.2669 77.9162 44.2336 77.7815C44.2003 77.6467 44.2172 77.507 44.283 77.3801C44.3485 77.2532 44.4594 77.1447 44.602 77.0684C44.7442 76.992 44.9117 76.9513 45.0831 76.9513C45.3128 76.9513 45.533 77.0245 45.6955 77.1547C45.8579 77.2849 45.9493 77.4616 45.9493 77.646Z" fill="white"/>
<path d="M41.7274 77.646C41.7274 77.7834 41.6765 77.9176 41.5813 78.0319C41.4861 78.1461 41.351 78.2351 41.1927 78.2878C41.0344 78.3403 40.8603 78.3541 40.6922 78.3274C40.5241 78.3004 40.37 78.2344 40.2489 78.1371C40.1275 78.04 40.0451 77.9162 40.0117 77.7815C39.9784 77.6467 39.9954 77.507 40.0611 77.3801C40.1266 77.2532 40.2376 77.1447 40.3801 77.0684C40.5223 76.992 40.6898 76.9513 40.8612 76.9513C41.0909 76.9513 41.3111 77.0245 41.4736 77.1547C41.636 77.2849 41.7274 77.4616 41.7274 77.646Z" fill="#24A7FF"/>
<path d="M37.5055 77.646C37.5055 77.7834 37.4546 77.9176 37.3594 78.0319C37.2642 78.1461 37.1291 78.2351 36.9708 78.2878C36.8125 78.3403 36.6385 78.3541 36.4703 78.3274C36.3022 78.3004 36.1481 78.2344 36.027 78.1371C35.9056 78.04 35.8232 77.9162 35.7899 77.7815C35.7565 77.6467 35.7735 77.507 35.8393 77.3801C35.9047 77.2532 36.0157 77.1447 36.1582 77.0684C36.3004 76.992 36.468 76.9513 36.6394 76.9513C36.8691 76.9513 37.0892 77.0245 37.2517 77.1547C37.4142 77.2849 37.5055 77.4616 37.5055 77.646Z" fill="white"/>
<path d="M57.8252 64.2331H23.5306C22.6384 64.2331 21.9152 64.8134 21.9152 65.5288V71.3483C21.9152 72.0638 22.6384 72.6441 23.5306 72.6441H57.8252C58.7173 72.6441 59.4406 72.0638 59.4406 71.3483V65.5288C59.4406 64.8134 58.7173 64.2331 57.8252 64.2331Z" fill="#D6E0EA"/>
<path d="M39.3586 64.2331L37.6546 72.6343H23.5306C23.1033 72.6343 22.6934 72.4981 22.3912 72.2558C22.089 72.0135 21.9192 71.6846 21.9192 71.3419V65.5257C21.9192 65.1828 22.089 64.8541 22.3912 64.6118C22.6934 64.3693 23.1033 64.2331 23.5306 64.2331H39.3586Z" fill="#EDEDED"/>
<path d="M57.1322 70.7926V66.0848H24.2235V70.7926H57.1322Z" fill="#3D4959"/>
<path d="M57.8252 55.1632H23.5306C22.6384 55.1632 21.9152 55.7432 21.9152 56.4589V62.2784C21.9152 62.9939 22.6384 63.5742 23.5306 63.5742H57.8252C58.7173 63.5742 59.4406 62.9939 59.4406 62.2784V56.4589C59.4406 55.7432 58.7173 55.1632 57.8252 55.1632Z" fill="#D6E0EA"/>
<path d="M41.2037 55.1632L39.4955 63.5644H23.5306C23.1033 63.5644 22.6934 63.4282 22.3912 63.1859C22.089 62.9433 21.9192 62.6147 21.9192 62.272V56.4556C21.9192 56.1129 22.089 55.7842 22.3912 55.5417C22.6934 55.2994 23.1033 55.1632 23.5306 55.1632H41.2037Z" fill="#EDEDED"/>
<path d="M57.1364 61.7258V57.018H24.2275V61.7258H57.1364Z" fill="#3D4959"/>
<path d="M53.5269 69.2479C54.0854 69.2479 54.5379 68.8849 54.5379 68.437C54.5379 67.9891 54.0854 67.6259 53.5269 67.6259C52.9684 67.6259 52.5155 67.9891 52.5155 68.437C52.5155 68.8849 52.9684 69.2479 53.5269 69.2479Z" fill="#24A7FF"/>
<path d="M50.1711 68.437C50.1711 68.5744 50.1203 68.7087 50.025 68.8229C49.9298 68.9372 49.7947 69.0264 49.6365 69.0788C49.4782 69.1315 49.3041 69.1451 49.136 69.1184C48.9679 69.0915 48.8137 69.0254 48.6926 68.9283C48.5712 68.831 48.4888 68.7073 48.4555 68.5725C48.4222 68.4378 48.4391 68.298 48.5049 68.1711C48.5703 68.0442 48.6813 67.9357 48.8239 67.8594C48.9661 67.7831 49.1336 67.7423 49.305 67.7423C49.5347 67.7423 49.7549 67.8155 49.9173 67.9457C50.0798 68.076 50.1711 68.2527 50.1711 68.437Z" fill="#24A7FF"/>
<path d="M45.9493 68.437C45.9493 68.5744 45.8984 68.7087 45.8032 68.8229C45.708 68.9372 45.5729 69.0264 45.4146 69.0788C45.2563 69.1315 45.0822 69.1451 44.9141 69.1184C44.746 69.0915 44.5919 69.0254 44.4708 68.9283C44.3494 68.831 44.2669 68.7073 44.2336 68.5725C44.2003 68.4378 44.2172 68.298 44.283 68.1711C44.3485 68.0442 44.4594 67.9357 44.602 67.8594C44.7442 67.7831 44.9117 67.7423 45.0831 67.7423C45.3128 67.7423 45.533 67.8155 45.6955 67.9457C45.8579 68.076 45.9493 68.2527 45.9493 68.437Z" fill="white"/>
<path d="M41.7274 68.437C41.7274 68.5744 41.6765 68.7087 41.5813 68.8229C41.4861 68.9372 41.351 69.0264 41.1927 69.0788C41.0344 69.1315 40.8603 69.1451 40.6922 69.1184C40.5241 69.0915 40.37 69.0254 40.2489 68.9283C40.1275 68.831 40.0451 68.7073 40.0117 68.5725C39.9784 68.4378 39.9954 68.298 40.0611 68.1711C40.1266 68.0442 40.2376 67.9357 40.3801 67.8594C40.5223 67.7831 40.6898 67.7423 40.8612 67.7423C41.0909 67.7423 41.3111 67.8155 41.4736 67.9457C41.636 68.076 41.7274 68.2527 41.7274 68.437Z" fill="#24A7FF"/>
<path d="M37.5055 68.437C37.5055 68.5744 37.4546 68.7087 37.3594 68.8229C37.2642 68.9372 37.1291 69.0264 36.9708 69.0788C36.8125 69.1315 36.6385 69.1451 36.4703 69.1184C36.3022 69.0915 36.1481 69.0254 36.027 68.9283C35.9056 68.831 35.8232 68.7073 35.7899 68.5725C35.7565 68.4378 35.7735 68.298 35.8393 68.1711C35.9047 68.0442 36.0157 67.9357 36.1582 67.8594C36.3004 67.7831 36.468 67.7423 36.6394 67.7423C36.8691 67.7423 37.0892 67.8155 37.2517 67.9457C37.4142 68.076 37.5055 68.2527 37.5055 68.437Z" fill="white"/>
<path d="M54.5379 59.3702C54.5379 59.5307 54.4787 59.6874 54.3674 59.8207C54.2564 59.9543 54.0984 60.058 53.9137 60.1196C53.7289 60.1809 53.5257 60.1971 53.3296 60.1656C53.1335 60.1344 52.9532 60.0571 52.8119 59.9438C52.6705 59.8303 52.5741 59.6857 52.5351 59.5283C52.4962 59.3712 52.5161 59.208 52.5926 59.0599C52.669 58.9116 52.7988 58.785 52.9651 58.6958C53.1314 58.6068 53.3269 58.5591 53.5269 58.5591C53.795 58.5591 54.052 58.6447 54.2419 58.7966C54.4314 58.9488 54.5379 59.1551 54.5379 59.3702Z" fill="#24A7FF"/>
<path d="M50.1711 59.3702C50.1711 59.5076 50.1203 59.6419 50.025 59.7561C49.9298 59.8703 49.7947 59.9595 49.6365 60.012C49.4782 60.0647 49.3041 60.0783 49.136 60.0516C48.9679 60.0249 48.8137 59.9586 48.6926 59.8615C48.5712 59.7642 48.4888 59.6404 48.4555 59.5057C48.4222 59.3709 48.4391 59.2314 48.5049 59.1043C48.5703 58.9774 48.6813 58.8689 48.8239 58.7926C48.9661 58.7163 49.1336 58.6755 49.305 58.6755C49.5347 58.6755 49.7549 58.7487 49.9173 58.8789C50.0798 59.0094 50.1711 59.1859 50.1711 59.3702Z" fill="white"/>
<path d="M45.9493 59.3702C45.9493 59.5076 45.8984 59.6419 45.8032 59.7561C45.708 59.8703 45.5729 59.9595 45.4146 60.012C45.2563 60.0647 45.0822 60.0783 44.9141 60.0516C44.746 60.0249 44.5919 59.9586 44.4708 59.8615C44.3494 59.7642 44.2669 59.6404 44.2336 59.5057C44.2003 59.3709 44.2172 59.2314 44.283 59.1043C44.3485 58.9774 44.4594 58.8689 44.602 58.7926C44.7442 58.7163 44.9117 58.6755 45.0831 58.6755C45.3128 58.6755 45.533 58.7487 45.6955 58.8789C45.8579 59.0094 45.9493 59.1859 45.9493 59.3702Z" fill="white"/>
<path d="M41.7274 59.3702C41.7274 59.5076 41.6765 59.6419 41.5813 59.7561C41.4861 59.8703 41.351 59.9595 41.1927 60.012C41.0344 60.0647 40.8603 60.0783 40.6922 60.0516C40.5241 60.0249 40.37 59.9586 40.2489 59.8615C40.1275 59.7642 40.0451 59.6404 40.0117 59.5057C39.9784 59.3709 39.9954 59.2314 40.0611 59.1043C40.1266 58.9774 40.2376 58.8689 40.3801 58.7926C40.5223 58.7163 40.6898 58.6755 40.8612 58.6755C41.0909 58.6755 41.3111 58.7487 41.4736 58.8789C41.636 59.0094 41.7274 59.1859 41.7274 59.3702Z" fill="#24A7FF"/>
<path d="M37.5055 59.3702C37.5055 59.5076 37.4546 59.6419 37.3594 59.7561C37.2642 59.8703 37.1291 59.9595 36.9708 60.012C36.8125 60.0647 36.6385 60.0783 36.4703 60.0516C36.3022 60.0249 36.1481 59.9586 36.027 59.8615C35.9056 59.7642 35.8232 59.6404 35.7899 59.5057C35.7565 59.3709 35.7735 59.2314 35.8393 59.1043C35.9047 58.9774 36.0157 58.8689 36.1582 58.7926C36.3004 58.7163 36.468 58.6755 36.6394 58.6755C36.8691 58.6755 37.0892 58.7487 37.2517 58.8789C37.4142 59.0094 37.5055 59.1859 37.5055 59.3702Z" fill="#24A7FF"/>
<path d="M103.025 69.0671C103.027 67.4105 102.37 65.7969 101.15 64.4604C99.9298 63.1239 98.2103 62.1343 96.2411 61.6352C96.0432 60.3969 95.4544 59.2197 94.5308 58.2149C93.6072 57.2102 92.3789 56.411 90.9626 55.8932C89.5463 55.3757 87.9887 55.1565 86.4373 55.2564C84.8858 55.3566 83.3919 55.7728 82.0969 56.4654C80.8023 55.7725 79.3086 55.3564 77.7572 55.2562C76.2061 55.156 74.6485 55.3752 73.2325 55.893C71.8164 56.4107 70.5885 57.2099 69.6655 58.2147C68.7422 59.2197 68.1539 60.3972 67.957 61.6352C65.7447 62.1933 63.855 63.3683 62.6297 64.9476C61.4041 66.5267 60.9245 68.4055 61.2771 70.2439C61.6293 72.0824 62.791 73.7588 64.5516 74.9696C66.3118 76.1802 68.5544 76.8454 70.8735 76.8446H93.5379C96.073 76.8005 98.4861 75.9617 100.259 74.5081C102.033 73.0543 103.025 71.101 103.025 69.0671Z" fill="#24A7FF"/>
<path d="M82.0163 56.42C80.7187 55.7418 79.2274 55.339 77.6826 55.2498C76.1377 55.1603 74.5899 55.3874 73.1845 55.9092C71.7789 56.4313 70.562 57.2312 69.6476 58.234C68.733 59.2367 68.1513 60.4093 67.957 61.6419C65.7447 62.1999 63.855 63.375 62.6297 64.9541C61.4041 66.5331 60.9245 68.412 61.2771 70.2505C61.6293 72.0888 62.791 73.7652 64.5516 74.976C66.3118 76.1869 68.5544 76.852 70.8735 76.8511H77.7019L82.0163 56.42Z" fill="#3BB0FF"/>
<path d="M97.8443 85.4557H66.4907V87.3267H97.8443V85.4557Z" fill="#3D4959"/>
<path d="M97.8443 76.3889H66.4907V78.2599H97.8443V76.3889Z" fill="#3D4959"/>
<path d="M99.2463 86.8645H64.9517C64.0594 86.8645 63.3361 87.4448 63.3361 88.1602V93.9797C63.3361 94.6952 64.0594 95.2755 64.9517 95.2755H99.2463C100.138 95.2755 100.862 94.6952 100.862 93.9797V88.1602C100.862 87.4448 100.138 86.8645 99.2463 86.8645Z" fill="#D6E0EA"/>
<path d="M78.9105 86.8645L77.2023 95.2657H64.9556C64.5283 95.2657 64.1183 95.1295 63.8163 94.8872C63.514 94.6449 63.3444 94.316 63.3444 93.9733V88.1571C63.3444 87.8142 63.514 87.4855 63.8163 87.2432C64.1183 87.0007 64.5283 86.8645 64.9556 86.8645H78.9105Z" fill="#EDEDED"/>
<path d="M98.5495 93.4271V88.7193H65.6406V93.4271H98.5495Z" fill="#3D4959"/>
<path d="M95.9549 91.0715C95.9519 91.2313 95.8897 91.387 95.7766 91.5187C95.6639 91.6503 95.5047 91.7522 95.3196 91.8116C95.1345 91.871 94.9319 91.8853 94.7367 91.8526C94.5418 91.8197 94.363 91.7414 94.2231 91.6277C94.0836 91.5137 93.9887 91.3692 93.9509 91.2122C93.9134 91.0553 93.9342 90.8929 94.0113 90.7455C94.0884 90.5979 94.2178 90.472 94.3838 90.3835C94.5496 90.295 94.7444 90.2478 94.9438 90.2475C95.078 90.2475 95.2107 90.269 95.3345 90.3105C95.4583 90.3522 95.5704 90.413 95.6645 90.4898C95.7588 90.5664 95.8329 90.6573 95.8826 90.7572C95.9325 90.8571 95.9569 90.964 95.9549 91.0715Z" fill="#24A7FF"/>
<path d="M91.5881 91.0715C91.5881 91.2089 91.5372 91.3434 91.442 91.4577C91.3471 91.5719 91.2117 91.6609 91.0534 91.7133C90.8951 91.766 90.721 91.7799 90.5529 91.7529C90.3848 91.7262 90.2307 91.6599 90.1096 91.5628C89.9885 91.4658 89.9057 91.342 89.8724 91.2072C89.8391 91.0725 89.8561 90.9327 89.9218 90.8059C89.9873 90.6787 90.0983 90.5702 90.2408 90.4939C90.3833 90.4176 90.5505 90.3768 90.7219 90.3768C90.9516 90.3768 91.1718 90.45 91.3343 90.5805C91.4967 90.7107 91.5881 90.8874 91.5881 91.0715Z" fill="#24A7FF"/>
<path d="M87.3703 91.0715C87.3703 91.2089 87.3195 91.3434 87.2243 91.4577C87.129 91.5719 86.9937 91.6609 86.8357 91.7133C86.6774 91.766 86.503 91.7799 86.3352 91.7529C86.1671 91.7262 86.0126 91.6599 85.8915 91.5628C85.7704 91.4658 85.688 91.342 85.6547 91.2072C85.6211 91.0725 85.6383 90.9327 85.7038 90.8059C85.7696 90.6787 85.8805 90.5702 86.0228 90.4939C86.1653 90.4176 86.3328 90.3768 86.5042 90.3768C86.7339 90.3768 86.9541 90.45 87.1165 90.5805C87.279 90.7107 87.3703 90.8874 87.3703 91.0715Z" fill="white"/>
<path d="M83.1443 91.0715C83.1443 91.2089 83.0934 91.3434 82.9982 91.4577C82.9033 91.5719 82.7679 91.6609 82.6096 91.7133C82.4513 91.766 82.2773 91.7799 82.1091 91.7529C81.9413 91.7262 81.7869 91.6599 81.6658 91.5628C81.5447 91.4658 81.462 91.342 81.4287 91.2072C81.3953 91.0725 81.4123 90.9327 81.478 90.8059C81.5435 90.6787 81.6545 90.5702 81.797 90.4939C81.9395 90.4176 82.1068 90.3768 82.2781 90.3768C82.5079 90.3768 82.7283 90.45 82.8905 90.5805C83.053 90.7107 83.1443 90.8874 83.1443 91.0715Z" fill="#24A7FF"/>
<path d="M78.9102 91.0715C78.9102 91.2089 78.8596 91.3434 78.7644 91.4577C78.6692 91.5719 78.5338 91.6609 78.3758 91.7133C78.2175 91.766 78.0432 91.7799 77.8754 91.7529C77.7072 91.7262 77.5528 91.6599 77.4317 91.5628C77.3106 91.4658 77.2282 91.342 77.1949 91.2072C77.1612 91.0725 77.1785 90.9327 77.244 90.8059C77.3097 90.6787 77.4207 90.5702 77.5629 90.4939C77.7055 90.4176 77.873 90.3768 78.0444 90.3768C78.2741 90.3768 78.4942 90.45 78.6567 90.5805C78.8192 90.7107 78.9102 90.8874 78.9102 91.0715Z" fill="white"/>
<path d="M99.2463 77.6524H64.9517C64.0594 77.6524 63.3361 78.2325 63.3361 78.9482V84.7674C63.3361 85.4831 64.0594 86.0632 64.9517 86.0632H99.2463C100.138 86.0632 100.862 85.4831 100.862 84.7674V78.9482C100.862 78.2325 100.138 77.6524 99.2463 77.6524Z" fill="#D6E0EA"/>
<path d="M80.7755 77.646L79.0715 86.0472H64.9517C64.5242 86.0472 64.1145 85.911 63.8122 85.6684C63.5101 85.4261 63.3402 85.0975 63.3402 84.7545V78.9384C63.3402 78.5957 63.5101 78.2668 63.8122 78.0245C64.1145 77.7822 64.5242 77.646 64.9517 77.646H80.7755Z" fill="#EDEDED"/>
<path d="M98.5533 84.2117V79.5038H65.6444V84.2117H98.5533Z" fill="#3D4959"/>
<path d="M99.2463 68.5856H64.9517C64.0594 68.5856 63.3361 69.1659 63.3361 69.8814V75.7008C63.3361 76.4163 64.0594 76.9966 64.9517 76.9966H99.2463C100.138 76.9966 100.862 76.4163 100.862 75.7008V69.8814C100.862 69.1659 100.138 68.5856 99.2463 68.5856Z" fill="#D6E0EA"/>
<path d="M82.6206 68.5985L80.9246 76.9997H64.9517C64.5242 76.9997 64.1145 76.8635 63.8122 76.6212C63.5101 76.3789 63.3402 76.05 63.3402 75.7073V69.8911C63.3402 69.5482 63.5101 69.2195 63.8122 68.9772C64.1145 68.7347 64.5242 68.5985 64.9517 68.5985H82.6206Z" fill="#EDEDED"/>
<path d="M98.5492 75.1449V70.437H65.6406V75.1449H98.5492Z" fill="#3D4959"/>
<path d="M95.9549 81.8466C95.9549 82.0069 95.8956 82.1638 95.7847 82.2971C95.6734 82.4304 95.5157 82.5344 95.3309 82.5959C95.1461 82.6572 94.9426 82.6732 94.7465 82.642C94.5504 82.6107 94.3701 82.5334 94.2288 82.4199C94.0875 82.3066 93.9911 82.1621 93.9521 82.0047C93.9131 81.8473 93.933 81.6844 94.0095 81.5361C94.0863 81.388 94.2157 81.2613 94.382 81.1721C94.5484 81.0832 94.7438 81.0355 94.9438 81.0355C95.0768 81.035 95.2086 81.0557 95.3315 81.0963C95.4544 81.1371 95.566 81.1967 95.66 81.2721C95.754 81.3474 95.8284 81.4371 95.879 81.5356C95.9299 81.6343 95.9555 81.74 95.9549 81.8466Z" fill="#24A7FF"/>
<path d="M91.5881 81.8466C91.5881 81.984 91.5372 82.1182 91.442 82.2325C91.3471 82.3467 91.2117 82.4357 91.0534 82.4884C90.8951 82.5408 90.721 82.5547 90.5529 82.528C90.3848 82.501 90.2307 82.4349 90.1096 82.3376C89.9885 82.2406 89.9057 82.1168 89.8724 81.982C89.8391 81.8473 89.8561 81.7075 89.9218 81.5807C89.9873 81.4538 90.0983 81.3453 90.2408 81.269C90.3833 81.1926 90.5505 81.1519 90.7219 81.1519C90.9516 81.1519 91.1718 81.2251 91.3343 81.3553C91.4967 81.4855 91.5881 81.6622 91.5881 81.8466Z" fill="#24A7FF"/>
<path d="M87.3703 81.8466C87.3703 81.984 87.3195 82.1182 87.2243 82.2325C87.129 82.3467 86.9937 82.4357 86.8357 82.4884C86.6774 82.5408 86.503 82.5547 86.3352 82.528C86.1671 82.501 86.0126 82.4349 85.8915 82.3376C85.7704 82.2406 85.688 82.1168 85.6547 81.982C85.6211 81.8473 85.6383 81.7075 85.7038 81.5807C85.7696 81.4538 85.8805 81.3453 86.0228 81.269C86.1653 81.1926 86.3328 81.1519 86.5042 81.1519C86.7339 81.1519 86.9541 81.2251 87.1165 81.3553C87.279 81.4855 87.3703 81.6622 87.3703 81.8466Z" fill="white"/>
<path d="M83.1443 81.8466C83.1443 81.984 83.0934 82.1182 82.9982 82.2325C82.9033 82.3467 82.7679 82.4357 82.6096 82.4884C82.4513 82.5408 82.2773 82.5547 82.1091 82.528C81.9413 82.501 81.7869 82.4349 81.6658 82.3376C81.5447 82.2406 81.462 82.1168 81.4287 81.982C81.3953 81.8473 81.4123 81.7075 81.478 81.5807C81.5435 81.4538 81.6545 81.3453 81.797 81.269C81.9395 81.1926 82.1068 81.1519 82.2781 81.1519C82.5079 81.1519 82.7283 81.2251 82.8905 81.3553C83.053 81.4855 83.1443 81.6622 83.1443 81.8466Z" fill="#24A7FF"/>
<path d="M78.9102 81.8466C78.9102 81.984 78.8596 82.1182 78.7644 82.2325C78.6692 82.3467 78.5338 82.4357 78.3758 82.4884C78.2175 82.5408 78.0432 82.5547 77.8754 82.528C77.7072 82.501 77.5528 82.4349 77.4317 82.3376C77.3106 82.2406 77.2282 82.1168 77.1949 81.982C77.1612 81.8473 77.1785 81.7075 77.244 81.5807C77.3097 81.4538 77.4207 81.3453 77.5629 81.269C77.7055 81.1926 77.873 81.1519 78.0444 81.1519C78.2741 81.1519 78.4942 81.2251 78.6567 81.3553C78.8192 81.4855 78.9102 81.6622 78.9102 81.8466Z" fill="white"/>
<path d="M95.9549 72.7991C95.9549 72.9596 95.8956 73.1163 95.7847 73.2496C95.6734 73.3832 95.5157 73.4871 95.3309 73.5484C95.1461 73.6097 94.9426 73.6259 94.7465 73.5945C94.5504 73.5632 94.3701 73.486 94.2288 73.3727C94.0875 73.2591 93.9911 73.1146 93.9521 72.9575C93.9131 72.8 93.933 72.6369 94.0095 72.4888C94.0863 72.3405 94.2157 72.2138 94.382 72.1249C94.5484 72.0357 94.7438 71.988 94.9438 71.988C95.2119 71.988 95.4693 72.0736 95.6588 72.2258C95.8483 72.3777 95.9549 72.584 95.9549 72.7991Z" fill="#24A7FF"/>
<path d="M91.5881 72.7991C91.5881 72.9364 91.5372 73.0707 91.442 73.1852C91.3471 73.2994 91.2117 73.3884 91.0534 73.4409C90.8951 73.4936 90.721 73.5072 90.5529 73.4804C90.3848 73.4537 90.2307 73.3874 90.1096 73.2904C89.9885 73.1933 89.9057 73.0693 89.8724 72.9345C89.8391 72.7998 89.8561 72.6603 89.9218 72.5332C89.9873 72.4063 90.0983 72.2978 90.2408 72.2214C90.3833 72.1451 90.5505 72.1043 90.7219 72.1043C90.9516 72.1043 91.1718 72.1776 91.3343 72.3078C91.4967 72.4382 91.5881 72.615 91.5881 72.7991Z" fill="white"/>
<path d="M87.3703 72.7991C87.3703 72.9364 87.3195 73.0707 87.2243 73.1852C87.129 73.2994 86.9937 73.3884 86.8357 73.4409C86.6774 73.4936 86.503 73.5072 86.3352 73.4804C86.1671 73.4537 86.0126 73.3874 85.8915 73.2904C85.7704 73.1933 85.688 73.0693 85.6547 72.9345C85.6211 72.7998 85.6383 72.6603 85.7038 72.5332C85.7696 72.4063 85.8805 72.2978 86.0228 72.2214C86.1653 72.1451 86.3328 72.1043 86.5042 72.1043C86.7339 72.1043 86.9541 72.1776 87.1165 72.3078C87.279 72.4382 87.3703 72.615 87.3703 72.7991Z" fill="white"/>
<path d="M83.1443 72.7991C83.1443 72.9364 83.0934 73.0707 82.9982 73.1852C82.9033 73.2994 82.7679 73.3884 82.6096 73.4409C82.4513 73.4936 82.2773 73.5072 82.1091 73.4804C81.9413 73.4537 81.7869 73.3874 81.6658 73.2904C81.5447 73.1933 81.462 73.0693 81.4287 72.9345C81.3953 72.7998 81.4123 72.6603 81.478 72.5332C81.5435 72.4063 81.6545 72.2978 81.797 72.2214C81.9395 72.1451 82.1068 72.1043 82.2781 72.1043C82.5079 72.1043 82.7283 72.1776 82.8905 72.3078C83.053 72.4382 83.1443 72.615 83.1443 72.7991Z" fill="#24A7FF"/>
<path d="M78.9102 72.7991C78.9102 72.9364 78.8596 73.0707 78.7644 73.1852C78.6692 73.2994 78.5338 73.3884 78.3758 73.4409C78.2175 73.4936 78.0432 73.5072 77.8754 73.4804C77.7072 73.4537 77.5528 73.3874 77.4317 73.2904C77.3106 73.1933 77.2282 73.0693 77.1949 72.9345C77.1612 72.7998 77.1785 72.6603 77.244 72.5332C77.3097 72.4063 77.4207 72.2978 77.5629 72.2214C77.7055 72.1451 77.873 72.1043 78.0444 72.1043C78.2741 72.1043 78.4942 72.1776 78.6567 72.3078C78.8192 72.4382 78.9102 72.615 78.9102 72.7991Z" fill="#24A7FF"/>
<path d="M161.857 66.9829C161.857 64.8866 161.024 62.8448 159.479 61.1542C157.933 59.4632 155.757 58.2114 153.264 57.5801C153.016 56.0108 152.271 54.5185 151.102 53.2445C149.933 51.9705 148.378 50.9569 146.584 50.2996C144.79 49.6423 142.817 49.3635 140.851 49.4889C138.885 49.6146 136.991 50.1407 135.35 51.0177C133.708 50.1407 131.815 49.6144 129.849 49.4887C127.883 49.363 125.91 49.6421 124.116 50.2993C122.322 50.9564 120.768 51.9702 119.599 53.2445C118.431 54.5185 117.687 56.011 117.439 57.5801C114.641 58.2898 112.253 59.7788 110.704 61.7778C109.156 63.7771 108.551 66.1544 108.997 68.4804C109.444 70.8065 110.913 72.9276 113.14 74.4604C115.366 75.9932 118.203 76.8365 121.137 76.8382H149.836C153.048 76.7815 156.105 75.7185 158.352 73.8764C160.599 72.0345 161.857 69.5599 161.857 66.9829Z" fill="#24A7FF"/>
<path d="M135.249 50.9788C133.605 50.1203 131.716 49.6106 129.759 49.4975C127.803 49.3847 125.842 49.6724 124.062 50.3335C122.282 50.9946 120.74 52.0074 119.582 53.2774C118.423 54.5472 117.686 56.032 117.439 57.5932C114.641 58.3027 112.253 59.7916 110.704 61.7909C109.156 63.79 108.551 66.1675 108.997 68.4933C109.444 70.8194 110.913 72.9405 113.14 74.4733C115.366 76.0061 118.203 76.8497 121.137 76.8511H129.77L135.249 50.9788Z" fill="#3BB0FF"/>
<path d="M139.261 72.0366H107.908V73.9074H139.261V72.0366Z" fill="#3D4959"/>
<path d="M139.261 62.9665H107.908V64.8374H139.261V62.9665Z" fill="#3D4959"/>
<path d="M140.663 73.4454H106.369C105.476 73.4454 104.753 74.0254 104.753 74.7411V80.5604C104.753 81.2761 105.476 81.8561 106.369 81.8561H140.663C141.555 81.8561 142.279 81.2761 142.279 80.5604V74.7411C142.279 74.0254 141.555 73.4454 140.663 73.4454Z" fill="#D6E0EA"/>
<path d="M120.327 73.4454L118.615 81.8466H106.369C105.941 81.8466 105.531 81.7104 105.229 81.4679C104.927 81.2255 104.757 80.8969 104.757 80.5539V74.7378C104.757 74.3951 104.927 74.0662 105.229 73.8239C105.531 73.5816 105.941 73.4454 106.369 73.4454H120.327Z" fill="#EDEDED"/>
<path d="M139.97 80.0047V75.2968H107.062V80.0047H139.97Z" fill="#3D4959"/>
<path d="M137.372 77.646C137.373 77.8065 137.314 77.9637 137.203 78.0975C137.093 78.2313 136.935 78.3357 136.75 78.3975C136.566 78.4595 136.362 78.4759 136.166 78.4449C135.97 78.4142 135.789 78.3371 135.647 78.2239C135.505 78.1106 135.409 77.966 135.369 77.8086C135.33 77.6512 135.35 77.4879 135.426 77.3395C135.503 77.1912 135.632 77.0643 135.799 76.9751C135.965 76.8857 136.161 76.8382 136.361 76.8382C136.628 76.8382 136.885 76.9231 137.074 77.0746C137.264 77.226 137.371 77.4313 137.372 77.646Z" fill="#24A7FF"/>
<path d="M132.139 78.3472C132.617 78.3472 133.005 78.0362 133.005 77.6524C133.005 77.2687 132.617 76.9577 132.139 76.9577C131.661 76.9577 131.273 77.2687 131.273 77.6524C131.273 78.0362 131.661 78.3472 132.139 78.3472Z" fill="#24A7FF"/>
<path d="M128.783 77.646C128.783 77.7834 128.733 77.9176 128.637 78.0319C128.542 78.1461 128.407 78.2351 128.248 78.2878C128.09 78.3403 127.916 78.3541 127.748 78.3274C127.58 78.3004 127.426 78.2344 127.305 78.1371C127.183 78.04 127.101 77.9162 127.067 77.7815C127.034 77.6467 127.051 77.507 127.117 77.3801C127.182 77.2532 127.293 77.1447 127.436 77.0684C127.578 76.992 127.746 76.9513 127.917 76.9513C128.147 76.9513 128.367 77.0245 128.53 77.1547C128.692 77.2849 128.783 77.4616 128.783 77.646Z" fill="white"/>
<path d="M124.561 77.646C124.561 77.7834 124.511 77.9176 124.415 78.0319C124.32 78.1461 124.185 78.2351 124.027 78.2878C123.868 78.3403 123.694 78.3541 123.526 78.3274C123.358 78.3004 123.204 78.2344 123.083 78.1371C122.962 78.04 122.879 77.9162 122.846 77.7815C122.812 77.6467 122.829 77.507 122.895 77.3801C122.96 77.2532 123.071 77.1447 123.214 77.0684C123.356 76.992 123.524 76.9513 123.695 76.9513C123.925 76.9513 124.145 77.0245 124.308 77.1547C124.47 77.2849 124.561 77.4616 124.561 77.646Z" fill="#24A7FF"/>
<path d="M120.339 77.646C120.339 77.7834 120.289 77.9176 120.194 78.0319C120.098 78.1461 119.963 78.2351 119.805 78.2878C119.646 78.3403 119.472 78.3541 119.304 78.3274C119.136 78.3004 118.982 78.2344 118.861 78.1371C118.74 78.04 118.657 77.9162 118.624 77.7815C118.59 77.6467 118.608 77.507 118.673 77.3801C118.739 77.2532 118.85 77.1447 118.992 77.0684C119.135 76.992 119.302 76.9513 119.473 76.9513C119.703 76.9513 119.923 77.0245 120.086 77.1547C120.248 77.2849 120.339 77.4616 120.339 77.646Z" fill="white"/>
<path d="M140.663 64.2331H106.369C105.476 64.2331 104.753 64.8134 104.753 65.5288V71.3483C104.753 72.0638 105.476 72.6441 106.369 72.6441H140.663C141.555 72.6441 142.279 72.0638 142.279 71.3483V65.5288C142.279 64.8134 141.555 64.2331 140.663 64.2331Z" fill="#D6E0EA"/>
<path d="M122.197 64.2331L120.488 72.6343H106.389C105.961 72.6343 105.552 72.4981 105.249 72.2558C104.947 72.0135 104.777 71.6846 104.777 71.3419V65.5257C104.777 65.1828 104.947 64.8541 105.249 64.6118C105.552 64.3693 105.961 64.2331 106.389 64.2331H122.197Z" fill="#EDEDED"/>
<path d="M139.97 70.7926V66.0848H107.062V70.7926H139.97Z" fill="#3D4959"/>
<path d="M140.663 55.1632H106.369C105.476 55.1632 104.753 55.7432 104.753 56.4589V62.2784C104.753 62.9939 105.476 63.5742 106.369 63.5742H140.663C141.555 63.5742 142.279 62.9939 142.279 62.2784V56.4589C142.279 55.7432 141.555 55.1632 140.663 55.1632Z" fill="#D6E0EA"/>
<path d="M124.03 55.1632L122.322 63.5644H106.369C105.941 63.5644 105.531 63.4282 105.229 63.1859C104.927 62.9433 104.757 62.6147 104.757 62.272V56.4556C104.757 56.1129 104.927 55.7842 105.229 55.5417C105.531 55.2994 105.941 55.1632 106.369 55.1632H124.03Z" fill="#EDEDED"/>
<path d="M139.97 61.7225V57.0146H107.062V61.7225H139.97Z" fill="#3D4959"/>
<path d="M137.372 68.437C137.372 68.5973 137.313 68.7542 137.202 68.8875C137.09 69.0209 136.933 69.1248 136.748 69.1864C136.563 69.2477 136.36 69.2637 136.163 69.2324C135.967 69.2012 135.787 69.1239 135.646 69.0104C135.504 68.8971 135.408 68.7526 135.369 68.5952C135.33 68.438 135.35 68.2749 135.427 68.1265C135.503 67.9784 135.633 67.8518 135.799 67.7626C135.965 67.6736 136.161 67.6259 136.361 67.6259C136.629 67.6259 136.886 67.7113 137.076 67.8635C137.265 68.0156 137.372 68.2219 137.372 68.437Z" fill="#24A7FF"/>
<path d="M133.005 68.437C133.005 68.5744 132.954 68.7087 132.859 68.8229C132.764 68.9372 132.629 69.0264 132.47 69.0788C132.312 69.1315 132.138 69.1451 131.97 69.1184C131.802 69.0915 131.648 69.0254 131.526 68.9283C131.405 68.831 131.323 68.7073 131.289 68.5725C131.256 68.4378 131.273 68.298 131.339 68.1711C131.404 68.0442 131.515 67.9357 131.658 67.8594C131.8 67.7831 131.968 67.7423 132.139 67.7423C132.369 67.7423 132.589 67.8155 132.751 67.9457C132.914 68.076 133.005 68.2527 133.005 68.437Z" fill="#24A7FF"/>
<path d="M128.783 68.437C128.783 68.5744 128.733 68.7087 128.637 68.8229C128.542 68.9372 128.407 69.0264 128.248 69.0788C128.09 69.1315 127.916 69.1451 127.748 69.1184C127.58 69.0915 127.426 69.0254 127.305 68.9283C127.183 68.831 127.101 68.7073 127.067 68.5725C127.034 68.4378 127.051 68.298 127.117 68.1711C127.182 68.0442 127.293 67.9357 127.436 67.8594C127.578 67.7831 127.746 67.7423 127.917 67.7423C128.147 67.7423 128.367 67.8155 128.53 67.9457C128.692 68.076 128.783 68.2527 128.783 68.437Z" fill="white"/>
<path d="M124.561 68.437C124.561 68.5744 124.511 68.7087 124.415 68.8229C124.32 68.9372 124.185 69.0264 124.027 69.0788C123.868 69.1315 123.694 69.1451 123.526 69.1184C123.358 69.0915 123.204 69.0254 123.083 68.9283C122.962 68.831 122.879 68.7073 122.846 68.5725C122.812 68.4378 122.829 68.298 122.895 68.1711C122.96 68.0442 123.071 67.9357 123.214 67.8594C123.356 67.7831 123.524 67.7423 123.695 67.7423C123.925 67.7423 124.145 67.8155 124.308 67.9457C124.47 68.076 124.561 68.2527 124.561 68.437Z" fill="#24A7FF"/>
<path d="M120.339 68.437C120.339 68.5744 120.289 68.7087 120.194 68.8229C120.098 68.9372 119.963 69.0264 119.805 69.0788C119.646 69.1315 119.472 69.1451 119.304 69.1184C119.136 69.0915 118.982 69.0254 118.861 68.9283C118.74 68.831 118.657 68.7073 118.624 68.5725C118.59 68.4378 118.608 68.298 118.673 68.1711C118.739 68.0442 118.85 67.9357 118.992 67.8594C119.135 67.7831 119.302 67.7423 119.473 67.7423C119.703 67.7423 119.923 67.8155 120.086 67.9457C120.248 68.076 120.339 68.2527 120.339 68.437Z" fill="white"/>
<path d="M137.372 59.3702C137.372 59.5307 137.313 59.6874 137.202 59.8207C137.09 59.9543 136.933 60.058 136.748 60.1196C136.563 60.1809 136.36 60.1971 136.163 60.1656C135.967 60.1344 135.787 60.0571 135.646 59.9438C135.504 59.8303 135.408 59.6857 135.369 59.5283C135.33 59.3712 135.35 59.208 135.427 59.0599C135.503 58.9116 135.633 58.785 135.799 58.6958C135.965 58.6068 136.161 58.5591 136.361 58.5591C136.494 58.5589 136.626 58.5794 136.748 58.6202C136.871 58.6607 136.983 58.7203 137.077 58.7957C137.171 58.8713 137.245 58.9607 137.296 59.0595C137.347 59.158 137.372 59.2636 137.372 59.3702Z" fill="#24A7FF"/>
<path d="M133.005 59.3702C133.005 59.5076 132.954 59.6419 132.859 59.7561C132.764 59.8703 132.629 59.9595 132.47 60.012C132.312 60.0647 132.138 60.0783 131.97 60.0516C131.802 60.0249 131.648 59.9586 131.526 59.8615C131.405 59.7642 131.323 59.6404 131.289 59.5057C131.256 59.3709 131.273 59.2314 131.339 59.1043C131.404 58.9774 131.515 58.8689 131.658 58.7926C131.8 58.7163 131.968 58.6755 132.139 58.6755C132.369 58.6755 132.589 58.7487 132.751 58.8789C132.914 59.0094 133.005 59.1859 133.005 59.3702Z" fill="white"/>
<path d="M128.783 59.3702C128.783 59.5076 128.733 59.6419 128.637 59.7561C128.542 59.8703 128.407 59.9595 128.248 60.012C128.09 60.0647 127.916 60.0783 127.748 60.0516C127.58 60.0249 127.426 59.9586 127.305 59.8615C127.183 59.7642 127.101 59.6404 127.067 59.5057C127.034 59.3709 127.051 59.2314 127.117 59.1043C127.182 58.9774 127.293 58.8689 127.436 58.7926C127.578 58.7163 127.746 58.6755 127.917 58.6755C128.147 58.6755 128.367 58.7487 128.53 58.8789C128.692 59.0094 128.783 59.1859 128.783 59.3702Z" fill="white"/>
<path d="M124.561 59.3702C124.561 59.5076 124.511 59.6419 124.415 59.7561C124.32 59.8703 124.185 59.9595 124.027 60.012C123.868 60.0647 123.694 60.0783 123.526 60.0516C123.358 60.0249 123.204 59.9586 123.083 59.8615C122.962 59.7642 122.879 59.6404 122.846 59.5057C122.812 59.3709 122.829 59.2314 122.895 59.1043C122.96 58.9774 123.071 58.8689 123.214 58.7926C123.356 58.7163 123.524 58.6755 123.695 58.6755C123.925 58.6755 124.145 58.7487 124.308 58.8789C124.47 59.0094 124.561 59.1859 124.561 59.3702Z" fill="#24A7FF"/>
<path d="M120.339 59.3702C120.339 59.5076 120.289 59.6419 120.194 59.7561C120.098 59.8703 119.963 59.9595 119.805 60.012C119.646 60.0647 119.472 60.0783 119.304 60.0516C119.136 60.0249 118.982 59.9586 118.861 59.8615C118.74 59.7642 118.657 59.6404 118.624 59.5057C118.59 59.3709 118.608 59.2314 118.673 59.1043C118.739 58.9774 118.85 58.8689 118.992 58.7926C119.135 58.7163 119.302 58.6755 119.473 58.6755C119.703 58.6755 119.923 58.7487 120.086 58.8789C120.248 59.0094 120.339 59.1859 120.339 59.3702Z" fill="#24A7FF"/>
<path d="M54.7233 4.5555e-05H109.474C110.416 4.5555e-05 111.319 0.299975 111.984 0.833843C112.65 1.36769 113.024 2.09175 113.024 2.84675V29.1552C113.024 30.055 112.578 30.9179 111.785 31.5542C110.992 32.1905 109.916 32.548 108.794 32.548H55.4041C54.8468 32.5502 54.2948 32.4638 53.7792 32.2943C53.2635 32.1249 52.7949 31.8752 52.4001 31.5599C52.0052 31.2447 51.6919 30.87 51.478 30.4574C51.264 30.0446 51.1539 29.6021 51.1539 29.1552V2.84675C51.1539 2.47156 51.2465 2.10005 51.4262 1.75362C51.6056 1.40718 51.869 1.09266 52.2007 0.828096C52.5325 0.563559 52.9261 0.354209 53.3591 0.21209C53.7917 0.0699956 54.2556 -0.00207704 54.7233 4.5555e-05Z" fill="#3BB0FF"/>
<path opacity="0.2" d="M81.5572 6.29084e-05H54.7394C54.2731 -0.00036638 53.8113 0.072994 53.3805 0.215899C52.9496 0.358805 52.5584 0.568465 52.2287 0.832907C51.899 1.09732 51.6374 1.4113 51.4592 1.75688C51.2813 2.10243 51.1896 2.47281 51.1902 2.84675V29.1552C51.1914 30.0546 51.6374 30.9167 52.4307 31.5523C53.2237 32.1877 54.299 32.5447 55.4201 32.5447H73.3913L81.5572 6.29084e-05Z" fill="white"/>
<path d="M51.1539 5.35738H113.024V35.0586C113.024 35.8137 112.65 36.5378 111.984 37.0715C111.319 37.6053 110.416 37.9053 109.474 37.9053H54.7233C54.2556 37.9075 53.7917 37.8354 53.3591 37.6933C52.9261 37.5511 52.5325 37.3417 52.2007 37.0773C51.869 36.8128 51.6056 36.4982 51.4262 36.1517C51.2465 35.8054 51.1539 35.4338 51.1539 35.0586V5.35738Z" fill="#D6E0EA"/>
<path d="M111.332 5.35738V35.0586C111.332 35.2564 111.283 35.4522 111.189 35.6348C111.095 35.8175 110.956 35.9835 110.782 36.1233C110.607 36.2633 110.401 36.3742 110.173 36.4498C109.945 36.5254 109.701 36.5643 109.455 36.5643H54.7191C54.4728 36.5643 54.2285 36.5254 54.0009 36.4498C53.7729 36.3742 53.5661 36.2633 53.3918 36.1233C53.2174 35.9835 53.0791 35.8175 52.9847 35.6348C52.8904 35.4522 52.8419 35.2564 52.8419 35.0586V5.35738H111.332Z" fill="#F3F9FF"/>
<path d="M93.0826 27.2391V24.331L90.585 24.0467C90.3913 23.3968 90.0721 22.7753 89.6382 22.205L91.145 20.5892L88.5787 18.5148L86.5646 19.7266C85.8552 19.3779 85.0816 19.1215 84.2723 18.9672L83.9138 16.9737H80.2882L79.9296 18.9672C79.1203 19.1215 78.3467 19.3779 77.6373 19.7266L75.6232 18.5148L73.0408 20.5861L74.5515 22.2017C74.1111 22.7693 73.7912 23.3918 73.605 24.0436L71.1193 24.3279V27.2358L73.605 27.5234C73.7942 28.1774 74.1138 28.8027 74.5515 29.3749L73.0408 30.9907L75.6232 33.052L77.6373 31.8404C78.3425 32.1974 79.1173 32.4574 79.9296 32.6093L80.2882 34.6031H83.9138L84.2723 32.6093C85.0846 32.4574 85.8591 32.1974 86.5646 31.8404L88.5787 33.052L91.145 30.9907L89.6382 29.3749C90.0673 28.8037 90.3863 28.1838 90.585 27.5363L93.0826 27.2391ZM82.0969 30.1924C81.0088 30.1931 79.9448 29.9348 79.0399 29.4502C78.1348 28.9656 77.4296 28.2766 77.0131 27.4705C76.5965 26.6641 76.4873 25.7769 76.6998 24.921C76.9122 24.065 77.4362 23.279 78.2059 22.662C78.9757 22.045 79.9561 21.6252 81.0237 21.4554C82.091 21.2856 83.197 21.3739 84.2018 21.7085C85.2069 22.0433 86.0653 22.6095 86.6687 23.3357C87.2722 24.0622 87.5935 24.9155 87.5917 25.7884C87.5911 26.3663 87.4486 26.9386 87.1722 27.4724C86.8955 28.0064 86.4905 28.4912 85.9802 28.8993C85.4699 29.3074 84.8641 29.6308 84.1979 29.8511C83.5314 30.0713 82.8176 30.1841 82.0969 30.1826V30.1924Z" fill="#425160"/>
<path d="M82.0809 30.1826C80.6223 30.1826 79.2238 29.7181 78.1925 28.891C77.1612 28.0639 76.5819 26.942 76.5819 25.7722C76.5819 24.6024 77.1612 23.4805 78.1925 22.6534C79.2238 21.8263 80.6223 21.3615 82.0809 21.3615V16.9672H80.2721L79.9135 18.9608C79.1042 19.1151 78.3306 19.3715 77.6213 19.7202L75.6069 18.5084L73.0248 20.5797L74.5354 22.1952C74.095 22.7629 73.7752 23.3853 73.5886 24.0369L71.1032 24.3214V27.2294L73.5886 27.517C73.7779 28.1709 74.0977 28.7963 74.5354 29.3684L73.0248 30.984L75.6069 33.0455L77.6213 31.834C78.3264 32.191 79.1012 32.451 79.9135 32.6029L80.2721 34.5967H82.0809V30.1826Z" fill="#3D4959"/>
<path d="M106.59 15.4678V13.387L104.806 13.1834C104.671 12.7199 104.444 12.277 104.133 11.8715L105.209 10.7277L103.38 9.25103L101.941 10.1138C101.435 9.86489 100.883 9.68167 100.306 9.57092L100.052 8.1524H97.4414L97.1876 9.57092C96.6103 9.68167 96.0584 9.86489 95.552 10.1138L94.1261 9.25103L92.2849 10.7277L93.3605 11.8715C93.0451 12.2755 92.8166 12.7189 92.6839 13.1834L90.9111 13.387V15.4678L92.6839 15.6715C92.8178 16.1375 93.0466 16.583 93.3605 16.9896L92.2849 18.1368L94.1261 19.6038L95.552 18.7411C96.0554 18.9961 96.608 19.1816 97.1876 19.2904L97.4414 20.7121H100.036L100.289 19.2904C100.869 19.1816 101.422 18.9961 101.925 18.7411L103.363 19.6038L105.192 18.1368L104.117 16.9832C104.424 16.5766 104.651 16.1339 104.789 15.6715L106.59 15.4678ZM98.7586 17.5713C97.9832 17.572 97.2248 17.3882 96.5797 17.0428C95.9343 16.6977 95.4315 16.2067 95.1342 15.6321C94.837 15.0574 94.759 14.425 94.9102 13.8148C95.0613 13.2047 95.4347 12.6442 95.9831 12.2043C96.5315 11.7644 97.2304 11.4649 97.9909 11.3437C98.7518 11.2225 99.5403 11.285 100.256 11.5234C100.973 11.7617 101.585 12.1652 102.016 12.6827C102.446 13.2002 102.675 13.8085 102.674 14.4306C102.676 14.8434 102.575 15.2522 102.379 15.6336C102.182 16.0149 101.894 16.3615 101.53 16.6534C101.166 16.9453 100.734 17.1764 100.259 17.334C99.7831 17.4917 99.2734 17.5723 98.7586 17.5713Z" fill="#41566D"/>
<path d="M74.4708 6.99564H54.9408V8.29781H74.4708V6.99564Z" fill="#D6E0EA"/>
<path d="M74.4708 10.0717H54.9408V11.3739H74.4708V10.0717Z" fill="#D6E0EA"/>
<path d="M74.4708 13.1478H54.9408V14.45H74.4708V13.1478Z" fill="#D6E0EA"/>
<path d="M70.249 16.2238H54.9408V17.526H70.249V16.2238Z" fill="#D6E0EA"/>
<path d="M70.249 19.3002H54.9408V20.6023H70.249V19.3002Z" fill="#D6E0EA"/>
<path d="M98.384 2.72719C98.3849 2.94399 98.3055 3.15608 98.1558 3.33664C98.0064 3.51721 97.7934 3.65811 97.5437 3.74151C97.2944 3.82491 97.0198 3.84707 96.7543 3.80516C96.4892 3.76326 96.2455 3.65918 96.0542 3.50614C95.8629 3.35307 95.7323 3.15789 95.6793 2.94532C95.6264 2.73275 95.6531 2.51234 95.7564 2.312C95.8596 2.11167 96.0346 1.9404 96.2592 1.81989C96.4839 1.69938 96.7481 1.63506 97.0186 1.63506C97.1977 1.63463 97.375 1.66256 97.5408 1.71727C97.7065 1.77196 97.8571 1.85233 97.9838 1.95378C98.1109 2.05524 98.2114 2.1758 98.2802 2.30852C98.3486 2.44124 98.384 2.5835 98.384 2.72719Z" fill="white"/>
<path d="M103.948 2.72719C103.948 2.94319 103.867 3.15436 103.718 3.33397C103.568 3.51355 103.356 3.65355 103.107 3.73621C102.858 3.81887 102.584 3.8405 102.32 3.79836C102.056 3.75622 101.814 3.65219 101.623 3.49946C101.433 3.34673 101.303 3.15211 101.25 2.94026C101.198 2.72841 101.225 2.5088 101.328 2.30925C101.431 2.10968 101.606 1.93911 101.829 1.8191C102.053 1.69909 102.316 1.63506 102.586 1.63506C102.947 1.63506 103.293 1.75011 103.549 1.95492C103.804 2.15974 103.948 2.43754 103.948 2.72719Z" fill="white"/>
<path d="M109.527 2.72719C109.527 2.94319 109.447 3.15436 109.297 3.33397C109.148 3.51355 108.935 3.65355 108.686 3.73621C108.437 3.81887 108.164 3.8405 107.9 3.79836C107.636 3.75622 107.393 3.65219 107.202 3.49946C107.012 3.34673 106.882 3.15211 106.83 2.94026C106.777 2.72841 106.804 2.5088 106.907 2.30925C107.01 2.10968 107.185 1.93911 107.409 1.8191C107.633 1.69909 107.896 1.63506 108.165 1.63506C108.526 1.63506 108.873 1.75011 109.128 1.95492C109.383 2.15974 109.527 2.43754 109.527 2.72719Z" fill="white"/>
<path d="M95.3065 33.2137C95.3065 33.3861 95.2425 33.5549 95.1229 33.6983C95.0036 33.8419 94.8337 33.9537 94.6349 34.0195C94.4362 34.0856 94.2175 34.103 94.0065 34.0694C93.7956 34.0355 93.6016 33.9525 93.4495 33.8304C93.2975 33.7085 93.1939 33.553 93.152 33.3837C93.11 33.2146 93.1314 33.0391 93.2139 32.8798C93.296 32.7202 93.4355 32.584 93.6143 32.4882C93.7932 32.3923 94.0035 32.3412 94.2187 32.3412C94.5073 32.3412 94.7837 32.4331 94.9878 32.5967C95.1916 32.7603 95.3065 32.9823 95.3065 33.2137Z" fill="#24A7FF"/>
<path d="M100.012 33.2137C100.012 33.387 99.9491 33.5566 99.8295 33.7009C99.7102 33.8454 99.54 33.9582 99.3406 34.025C99.141 34.0918 98.9214 34.1094 98.7095 34.0761C98.4974 34.0427 98.3025 33.9594 98.1492 33.8371C97.9963 33.7147 97.8919 33.5588 97.8493 33.3889C97.8071 33.2189 97.8285 33.0427 97.9109 32.8824C97.9933 32.7224 98.1332 32.5852 98.3129 32.4889C98.4926 32.3925 98.7039 32.3412 98.9199 32.3412C99.2088 32.3412 99.4858 32.4331 99.6905 32.5964C99.8949 32.76 100.011 32.9818 100.012 33.2137Z" fill="#24A7FF"/>
<path d="M105.16 33.2137C105.161 33.4581 105.071 33.6971 104.902 33.9005C104.734 34.1042 104.493 34.2628 104.212 34.3565C103.931 34.4505 103.621 34.4753 103.322 34.4276C103.023 34.3801 102.748 34.2625 102.533 34.0896C102.318 33.917 102.171 33.6966 102.112 33.4569C102.052 33.2172 102.083 32.9687 102.2 32.7431C102.317 32.5173 102.515 32.3245 102.769 32.1893C103.022 32.0539 103.321 31.9818 103.625 31.9825C104.032 31.9825 104.423 32.1123 104.71 32.3432C104.998 32.574 105.16 32.8872 105.16 33.2137Z" fill="#24A7FF"/>
<path d="M109.418 33.2137C109.419 33.387 109.356 33.5566 109.236 33.7009C109.117 33.8454 108.947 33.9582 108.747 34.025C108.548 34.0918 108.328 34.1094 108.116 34.0761C107.904 34.0427 107.709 33.9594 107.556 33.8371C107.403 33.7147 107.298 33.5588 107.256 33.3889C107.214 33.2189 107.235 33.0427 107.318 32.8824C107.4 32.7224 107.54 32.5852 107.72 32.4889C107.899 32.3925 108.11 32.3412 108.326 32.3412C108.615 32.3412 108.892 32.4331 109.097 32.5964C109.302 32.76 109.417 32.9818 109.418 33.2137Z" fill="#24A7FF"/>
<path d="M56.9591 33.2137C56.96 33.387 56.8966 33.5566 56.777 33.7009C56.6576 33.8454 56.4875 33.9582 56.2881 34.025C56.0884 34.0918 55.8689 34.1094 55.657 34.0761C55.4448 34.0427 55.25 33.9594 55.0967 33.8371C54.9438 33.7147 54.8393 33.5588 54.7968 33.3889C54.7545 33.2189 54.776 33.0427 54.8584 32.8824C54.9408 32.7224 55.0806 32.5852 55.2604 32.4889C55.4401 32.3925 55.6513 32.3412 55.8674 32.3412C56.1563 32.3412 56.4333 32.4331 56.638 32.5964C56.8424 32.76 56.9579 32.9818 56.9591 33.2137Z" fill="#24A7FF"/>
<path d="M61.6603 33.2137C61.6603 33.3861 61.5966 33.5549 61.477 33.6983C61.3574 33.8419 61.1878 33.9537 60.989 34.0195C60.7903 34.0856 60.5716 34.103 60.3603 34.0694C60.1493 34.0355 59.9557 33.9525 59.8036 33.8304C59.6516 33.7085 59.5477 33.553 59.5058 33.3837C59.4638 33.2146 59.4855 33.0391 59.5677 32.8798C59.6501 32.7202 59.7896 32.584 59.9684 32.4882C60.1473 32.3923 60.3576 32.3412 60.5728 32.3412C60.8611 32.3412 61.1378 32.4331 61.3416 32.5967C61.5457 32.7603 61.6603 32.9823 61.6603 33.2137Z" fill="#24A7FF"/>
<path d="M66.3615 33.2137C66.3615 33.3861 66.2978 33.5549 66.1782 33.6983C66.0586 33.8419 65.889 33.9537 65.6902 34.0195C65.4915 34.0856 65.2728 34.103 65.0618 34.0694C64.8506 34.0355 64.6569 33.9525 64.5048 33.8304C64.3528 33.7085 64.2489 33.553 64.207 33.3837C64.165 33.2146 64.1867 33.0391 64.2689 32.8798C64.3513 32.7202 64.4908 32.584 64.6697 32.4882C64.8485 32.3923 65.0589 32.3412 65.274 32.3412C65.5623 32.3412 65.839 32.4331 66.0431 32.5967C66.247 32.7603 66.3615 32.9823 66.3615 33.2137Z" fill="#24A7FF"/>
<path d="M71.0669 33.2137C71.0678 33.3871 71.0041 33.5569 70.8845 33.7014C70.7649 33.8459 70.5944 33.9585 70.3948 34.0253C70.1951 34.0918 69.9752 34.1094 69.7631 34.0758C69.5509 34.0422 69.356 33.9587 69.2031 33.8361C69.0501 33.7133 68.9463 33.5571 68.9043 33.3868C68.8621 33.2168 68.8841 33.0403 68.9674 32.8802C69.0504 32.7202 69.1909 32.5833 69.3712 32.4874C69.5512 32.3913 69.7631 32.3405 69.9791 32.3413C70.2677 32.3413 70.5444 32.4331 70.7482 32.5967C70.9524 32.7603 71.0669 32.9823 71.0669 33.2137Z" fill="#24A7FF"/>
<path d="M47.2543 8.45611V6.0618L45.2039 5.8259C45.0474 5.29325 44.7862 4.78392 44.4306 4.31693L45.6672 2.99861L43.5644 1.30222L41.9047 2.29421C41.3233 2.00662 40.6881 1.79605 40.0233 1.67058L39.7332 0.0355835H36.7482L36.454 1.67058C35.7896 1.79722 35.1546 2.00771 34.5726 2.29421L32.9289 1.30222L30.814 3.00507L32.0509 4.32339C31.6903 4.78881 31.4278 5.29859 31.2734 5.83236L29.235 6.06826V8.46257L31.2734 8.69522C31.4284 9.23185 31.6909 9.74476 32.0509 10.2139L30.814 11.5322L32.9289 13.2221L34.5726 12.2302C35.1525 12.5213 35.7881 12.7342 36.454 12.8603L36.7482 14.4952H39.7332L40.0233 12.8603C40.6895 12.7354 41.3254 12.5224 41.9047 12.2302L43.5644 13.2221L45.6672 11.5322L44.4306 10.2042C44.7835 9.73615 45.0444 9.22716 45.2039 8.69522L47.2543 8.45611ZM38.2467 10.2559C37.5067 10.2565 36.7834 10.081 36.1677 9.75165C35.5524 9.42227 35.0725 8.95382 34.7892 8.40557C34.5059 7.85734 34.4319 7.254 34.5762 6.67193C34.7205 6.08989 35.0772 5.55531 35.6006 5.13589C36.124 4.71648 36.7911 4.43107 37.5168 4.31583C38.2425 4.20061 38.9947 4.26074 39.6779 4.48857C40.361 4.71643 40.9448 5.10176 41.3549 5.5958C41.7646 6.08982 41.9827 6.67031 41.9812 7.2638C41.9818 7.6571 41.8854 8.04666 41.6979 8.41008C41.5105 8.77349 41.2352 9.10364 40.8883 9.38163C40.5414 9.65959 40.1296 9.87989 39.6761 10.0299C39.2229 10.18 38.737 10.2567 38.2467 10.2559Z" fill="#E4EFF7"/>
<path d="M140.168 41.534V39.4596L138.395 39.2559C138.257 38.7994 138.03 38.3634 137.722 37.9635L138.794 36.8197L136.969 35.3494L135.535 36.2089C135.036 35.9623 134.493 35.7803 133.923 35.6694L133.67 34.254H131.083L130.83 35.6694C130.261 35.781 129.717 35.963 129.218 36.2089L127.796 35.3494L125.959 36.8197L127.035 37.9635C126.722 38.3613 126.495 38.7982 126.362 39.2559L124.594 39.4596V41.534L126.362 41.7377C126.496 42.2013 126.723 42.6444 127.035 43.0494L125.959 44.1932L127.796 45.6571L129.218 44.7942C129.714 45.0472 130.258 45.233 130.83 45.3437L131.083 46.7589H133.67L133.923 45.3437C134.495 45.2335 135.04 45.048 135.535 44.7942L136.969 45.6571L138.794 44.1932L137.726 43.0429C138.03 42.6416 138.257 42.2058 138.399 41.7505L140.168 41.534ZM132.364 43.0914C131.727 43.0914 131.104 42.9399 130.574 42.6559C130.044 42.3718 129.631 41.968 129.387 41.4956C129.143 41.0234 129.079 40.5037 129.204 40.0021C129.328 39.5008 129.635 39.0401 130.086 38.6785C130.536 38.3172 131.111 38.0708 131.736 37.9711C132.361 37.8714 133.009 37.9227 133.598 38.1183C134.187 38.3138 134.69 38.6451 135.044 39.0703C135.398 39.4953 135.587 39.9952 135.587 40.5066C135.587 41.192 135.248 41.8495 134.643 42.3344C134.039 42.819 133.219 43.0914 132.364 43.0914Z" fill="#DDE9F2"/>
<path d="M117.701 89.036V87.6627L116.528 87.527C116.439 87.2217 116.288 86.9303 116.081 86.6642L116.794 85.9081L115.586 84.9386L114.635 85.5106C114.303 85.3448 113.94 85.2236 113.559 85.1521L113.39 84.2151H111.682L111.513 85.1521C111.131 85.2239 110.767 85.345 110.433 85.5106L109.495 84.9386L108.286 85.9081L108.999 86.6642C108.791 86.9296 108.64 87.2213 108.552 87.527L107.384 87.6627V89.0326L108.552 89.1683C108.641 89.4758 108.792 89.7693 108.999 90.0376L108.286 90.7937L109.495 91.7631L110.433 91.1912C110.765 91.3599 111.13 91.4832 111.513 91.5564L111.682 92.4934H113.39L113.559 91.5564C113.941 91.4839 114.305 91.3603 114.635 91.1912L115.57 91.7662L116.778 90.797L116.065 90.0376C116.269 89.7691 116.419 89.4769 116.512 89.1717L117.701 89.036ZM112.54 90.0698C112.116 90.0706 111.701 89.9701 111.348 89.7815C110.995 89.5929 110.72 89.3245 110.557 89.0102C110.394 88.6959 110.352 88.3501 110.434 88.0164C110.517 87.6825 110.721 87.3761 111.021 87.1354C111.321 86.8948 111.703 86.7309 112.119 86.6649C112.535 86.5986 112.966 86.6329 113.358 86.7634C113.75 86.8938 114.085 87.1147 114.32 87.398C114.555 87.6811 114.68 88.0138 114.679 88.3541C114.68 88.5795 114.625 88.803 114.518 89.0112C114.41 89.2196 114.253 89.409 114.054 89.5683C113.855 89.7278 113.619 89.854 113.359 89.9401C113.1 90.0262 112.821 90.0703 112.54 90.0698Z" fill="#E4EFF7"/>
<path d="M67.2277 98.6778C67.2277 97.7312 67.8602 97.1915 68.7103 97.1915C69.5601 97.1915 70.1885 97.7312 70.1885 98.6778C70.1885 99.6246 69.5563 100.167 68.7103 100.167C67.8641 100.167 67.2277 99.6182 67.2277 98.6778ZM69.669 98.6778C69.669 97.9346 69.2661 97.56 68.7103 97.56C68.1542 97.56 67.7475 97.9346 67.7475 98.6778C67.7475 99.4209 68.1504 99.7958 68.7103 99.7958C69.27 99.7958 69.6649 99.4243 69.6649 98.6778H69.669Z" fill="#DDE9F2"/>
<path d="M70.6843 98.6778C70.6843 97.7312 71.3165 97.1915 72.1666 97.1915C73.0167 97.1915 73.641 97.7312 73.641 98.6778C73.641 99.6246 73.0087 100.167 72.1666 100.167C71.3246 100.167 70.6843 99.6182 70.6843 98.6778ZM73.1012 98.6778C73.1012 97.9346 72.6984 97.56 72.1464 97.56C71.5945 97.56 71.1797 97.9346 71.1797 98.6778C71.1797 99.4209 71.5826 99.7958 72.1464 99.7958C72.7106 99.7958 73.1215 99.4243 73.1215 98.6778H73.1012Z" fill="#DDE9F2"/>
<path d="M75.2483 97.2237V100.132H74.7368V97.5824H73.9311V97.2206L75.2483 97.2237Z" fill="#DDE9F2"/>
<path d="M76.0422 98.6778C76.0422 97.7312 76.6745 97.1915 77.5245 97.1915C78.3746 97.1915 79.0031 97.7312 79.0031 98.6778C79.0031 99.6246 78.3705 100.167 77.5245 100.167C76.6786 100.167 76.0422 99.6182 76.0422 98.6778ZM78.4832 98.6778C78.4832 97.9346 78.0804 97.56 77.5245 97.56C76.9687 97.56 76.5617 97.9346 76.5617 98.6778C76.5617 99.4209 76.9646 99.7958 77.5245 99.7958C78.0845 99.7958 78.4832 99.4243 78.4832 98.6778Z" fill="#DDE9F2"/>
<path d="M80.6104 97.2237V100.132H80.1189V97.5824H79.3131V97.2206L80.6104 97.2237Z" fill="#DDE9F2"/>
<path d="M81.404 98.6778C81.404 97.7312 82.0365 97.1915 82.8863 97.1915C83.7364 97.1915 84.361 97.7312 84.361 98.6778C84.361 99.6246 83.7284 100.167 82.8863 100.167C82.0446 100.167 81.404 99.6182 81.404 98.6778ZM83.8453 98.6778C83.8453 97.9346 83.4424 97.56 82.8863 97.56C82.3305 97.56 81.9196 97.9346 81.9196 98.6778C81.9196 99.4209 82.3225 99.7958 82.8863 99.7958C83.4505 99.7958 83.8453 99.4243 83.8453 98.6778Z" fill="#DDE9F2"/>
<path d="M85.9683 97.2237V100.132H85.4565V97.5824H84.6511V97.2206L85.9683 97.2237Z" fill="#DDE9F2"/>
<path d="M12.0373 46.5617C12.0373 45.3694 12.843 44.6909 13.8985 44.6909C14.9539 44.6909 15.7556 45.3694 15.7556 46.5617C15.7556 47.7541 14.9499 48.4293 13.8985 48.4293C12.847 48.4293 12.0373 47.7508 12.0373 46.5617ZM15.103 46.5617C15.103 45.628 14.6075 45.1562 13.8944 45.1562C13.1814 45.1562 12.6859 45.628 12.6859 46.5617C12.6859 47.4956 13.1814 47.9674 13.8944 47.9674C14.6075 47.9674 15.0949 47.4956 15.0949 46.5617H15.103Z" fill="#DDE9F2"/>
<path d="M16.372 46.5617C16.372 45.3694 17.1777 44.6909 18.2372 44.6909C19.2967 44.6909 20.0903 45.3694 20.0903 46.5617C20.0903 47.7541 19.2846 48.4293 18.2372 48.4293C17.1898 48.4293 16.372 47.7508 16.372 46.5617ZM19.4377 46.5617C19.4377 45.628 18.9462 45.1562 18.2291 45.1562C17.5121 45.1562 17.0206 45.628 17.0206 46.5617C17.0206 47.4956 17.5161 47.9674 18.2291 47.9674C18.9422 47.9674 19.4377 47.4956 19.4377 46.5617Z" fill="#DDE9F2"/>
<path d="M22.1085 44.7329V48.3873H21.464V45.1884H20.4367V44.7329H22.1085Z" fill="#DDE9F2"/>
<path d="M23.1076 46.5617C23.1076 45.3694 23.9133 44.6909 24.9688 44.6909C26.0242 44.6909 26.8259 45.3694 26.8259 46.5617C26.8259 47.7541 26.0202 48.4293 24.9688 48.4293C23.9173 48.4293 23.1076 47.7508 23.1076 46.5617ZM26.1733 46.5617C26.1733 45.628 25.6818 45.1562 24.9648 45.1562C24.2477 45.1562 23.7562 45.628 23.7562 46.5617C23.7562 47.4956 24.2517 47.9674 24.9648 47.9674C25.6778 47.9674 26.1733 47.4956 26.1733 46.5617Z" fill="#DDE9F2"/>
<path d="M28.8442 44.7329V48.3873H28.1996V45.1884H27.1724V44.7329H28.8442Z" fill="#DDE9F2"/>
<path d="M31.2573 44.7329V48.3873H30.6126V45.1884H29.5814V44.7329H31.2573Z" fill="#DDE9F2"/>
<path d="M32.2523 46.5617C32.2523 45.3694 33.0581 44.6909 34.1135 44.6909C35.1689 44.6909 35.9705 45.3694 35.9705 46.5617C35.9705 47.7541 35.165 48.4293 34.1135 48.4293C33.062 48.4293 32.2523 47.7508 32.2523 46.5617ZM35.318 46.5617C35.318 45.628 34.8264 45.1562 34.1093 45.1562C33.3922 45.1562 32.901 45.628 32.901 46.5617C32.901 47.4956 33.3964 47.9674 34.1093 47.9674C34.8225 47.9674 35.318 47.4956 35.318 46.5617Z" fill="#DDE9F2"/>
<path d="M36.6111 46.5617C36.6111 45.3694 37.4168 44.6909 38.4722 44.6909C39.5276 44.6909 40.3253 45.3694 40.3253 46.5617C40.3253 47.7541 39.5196 48.4293 38.4722 48.4293C37.4249 48.4293 36.6111 47.7508 36.6111 46.5617ZM39.6767 46.5617C39.6767 45.628 39.1813 45.1562 38.4684 45.1562C37.7551 45.1562 37.2597 45.628 37.2597 46.5617C37.2597 47.4956 37.7551 47.9674 38.4684 47.9674C39.1813 47.9674 39.6648 47.4956 39.6648 46.5617H39.6767Z" fill="#DDE9F2"/>
<path d="M40.9419 46.5617C40.9419 45.3694 41.7476 44.6909 42.803 44.6909C43.8584 44.6909 44.66 45.3694 44.66 46.5617C44.66 47.7541 43.8545 48.4293 42.803 48.4293C41.7515 48.4293 40.9419 47.7508 40.9419 46.5617ZM44.0075 46.5617C44.0075 45.628 43.5159 45.1562 42.7988 45.1562C42.0818 45.1562 41.5905 45.628 41.5905 46.5617C41.5905 47.4956 42.0859 47.9674 42.7988 47.9674C43.5121 47.9674 44.0075 47.4956 44.0075 46.5617Z" fill="#DDE9F2"/>
<path d="M46.6824 44.7329V48.3873H46.0379V45.1884H45.0105V44.7329H46.6824Z" fill="#DDE9F2"/>
<path d="M47.6774 46.5617C47.6774 45.3694 48.4832 44.6909 49.5386 44.6909C50.594 44.6909 51.3958 45.3694 51.3958 46.5617C51.3958 47.7541 50.5901 48.4293 49.5386 48.4293C48.487 48.4293 47.6774 47.7508 47.6774 46.5617ZM50.743 46.5617C50.743 45.628 50.2476 45.1562 49.5347 45.1562C48.8215 45.1562 48.3261 45.628 48.3261 46.5617C48.3261 47.4956 48.8215 47.9674 49.5347 47.9674C50.2476 47.9674 50.743 47.4956 50.743 46.5617Z" fill="#DDE9F2"/>
<path d="M53.4141 44.7329V48.3873H52.7693V45.1884H51.7422V44.7329H53.4141Z" fill="#DDE9F2"/>
<path d="M83.8656 50.8593C83.8656 49.6669 84.671 48.9883 85.7267 48.9883C86.7821 48.9883 87.5837 49.6669 87.5837 50.8593C87.5837 52.0516 86.7779 52.727 85.7267 52.727C84.6752 52.727 83.8656 52.0485 83.8656 50.8593ZM86.9312 50.8593C86.9312 49.9223 86.4355 49.4536 85.7225 49.4536C85.0096 49.4536 84.5139 49.9223 84.5139 50.8593C84.5139 51.7964 85.0096 52.2617 85.7225 52.2617C86.4355 52.2617 86.9312 51.7964 86.9312 50.8593Z" fill="#DDE9F2"/>
<path d="M89.6019 49.0303V52.6848H88.9575V49.4861H87.93V49.0303H89.6019Z" fill="#DDE9F2"/>
<path d="M92.0112 49.0303V52.6848H91.3664V49.4861H90.3393V49.0303H92.0112Z" fill="#DDE9F2"/>
<path d="M93.01 50.8593C93.01 49.6669 93.8158 48.9883 94.8712 48.9883C95.9266 48.9883 96.7285 49.6669 96.7285 50.8593C96.7285 52.0516 95.9227 52.727 94.8712 52.727C93.82 52.727 93.01 52.0485 93.01 50.8593ZM96.0757 50.8593C96.0757 49.9223 95.5802 49.4536 94.8673 49.4536C94.1541 49.4536 93.6587 49.9223 93.6587 50.8593C93.6587 51.7964 94.1502 52.2617 94.8673 52.2617C95.5844 52.2617 96.0757 51.7964 96.0757 50.8593Z" fill="#DDE9F2"/>
<path d="M97.3527 50.8593C97.3527 49.6669 98.1585 48.9883 99.218 48.9883C100.278 48.9883 101.071 49.6669 101.071 50.8593C101.071 52.0516 100.265 52.727 99.218 52.727C98.1707 52.727 97.3527 52.0485 97.3527 50.8593ZM100.423 50.8593C100.423 49.9223 99.9271 49.4536 99.2139 49.4536C98.501 49.4536 98.0055 49.9223 98.0055 50.8593C98.0055 51.7964 98.501 52.2617 99.2139 52.2617C99.9271 52.2617 100.423 51.7964 100.423 50.8593Z" fill="#DDE9F2"/>
<path d="M101.7 50.8593C101.7 49.6669 102.505 48.9883 103.561 48.9883C104.616 48.9883 105.418 49.6669 105.418 50.8593C105.418 52.0516 104.612 52.727 103.561 52.727C102.509 52.727 101.7 52.0485 101.7 50.8593ZM104.765 50.8593C104.765 49.9223 104.27 49.4536 103.557 49.4536C102.844 49.4536 102.348 49.9223 102.348 50.8593C102.348 51.7964 102.844 52.2617 103.557 52.2617C104.27 52.2617 104.765 51.7964 104.765 50.8593Z" fill="#DDE9F2"/>
<path d="M117.503 6.99562C117.503 7.16817 117.439 7.33683 117.32 7.48031C117.201 7.62376 117.031 7.73559 116.832 7.80161C116.633 7.86765 116.414 7.88494 116.203 7.85126C115.992 7.81761 115.799 7.73452 115.646 7.61251C115.494 7.49049 115.391 7.33504 115.349 7.16581C115.307 6.99657 115.328 6.82116 115.411 6.66175C115.493 6.50232 115.632 6.36607 115.811 6.27022C115.99 6.17434 116.2 6.12318 116.416 6.12318C116.704 6.12318 116.981 6.2151 117.185 6.37871C117.389 6.54231 117.503 6.76423 117.503 6.99562Z" fill="#DDE9F2"/>
<path d="M122.209 6.99561C122.209 7.16906 122.146 7.3388 122.026 7.4833C121.907 7.62781 121.736 7.74054 121.537 7.8072C121.337 7.87388 121.117 7.89151 120.905 7.85781C120.693 7.82414 120.498 7.74066 120.345 7.61801C120.192 7.49535 120.088 7.33904 120.046 7.16887C120.004 6.99871 120.026 6.82237 120.109 6.66224C120.192 6.50209 120.333 6.36539 120.513 6.2694C120.693 6.17343 120.905 6.12253 121.121 6.12317C121.409 6.12317 121.686 6.21509 121.89 6.3787C122.094 6.5423 122.209 6.76422 122.209 6.99561Z" fill="#DDE9F2"/>
<path d="M127.361 6.99562C127.361 7.23974 127.271 7.4784 127.102 7.68138C126.933 7.88436 126.692 8.04256 126.411 8.136C126.13 8.22942 125.82 8.25386 125.522 8.20623C125.224 8.15861 124.949 8.04103 124.734 7.86841C124.519 7.69579 124.372 7.47587 124.313 7.23642C124.254 6.997 124.284 6.74882 124.401 6.52328C124.517 6.29774 124.714 6.10496 124.967 5.96933C125.22 5.8337 125.518 5.76129 125.822 5.76129C126.23 5.76129 126.622 5.89134 126.91 6.12282C127.199 6.35431 127.361 6.66826 127.361 6.99562Z" fill="#DDE9F2"/>
<path d="M131.615 6.99561C131.616 7.16906 131.553 7.3388 131.433 7.4833C131.313 7.62781 131.143 7.74054 130.943 7.8072C130.744 7.87388 130.524 7.89151 130.312 7.85781C130.099 7.82414 129.905 7.74066 129.752 7.61801C129.599 7.49535 129.495 7.33904 129.453 7.16887C129.411 6.99871 129.433 6.82237 129.516 6.66224C129.599 6.50209 129.739 6.36539 129.919 6.2694C130.1 6.17343 130.311 6.12253 130.528 6.12317C130.816 6.12317 131.093 6.21509 131.297 6.3787C131.501 6.5423 131.615 6.76422 131.615 6.99561Z" fill="#DDE9F2"/>
<path d="M52.6446 85.4557C52.6438 85.2823 52.7071 85.1128 52.8265 84.9685C52.9461 84.8239 53.1163 84.7111 53.3156 84.6444C53.515 84.5776 53.7349 84.5599 53.9467 84.5933C54.1589 84.6267 54.3538 84.71 54.5067 84.8323C54.6599 84.9546 54.7644 85.1106 54.8066 85.2804C54.8492 85.4505 54.8277 85.6267 54.7453 85.787C54.6629 85.947 54.5228 86.0839 54.3433 86.1805C54.1636 86.2769 53.9524 86.3281 53.7363 86.3281C53.5932 86.3286 53.4513 86.3064 53.3189 86.2628C53.1865 86.2191 53.066 86.1547 52.9645 86.0739C52.863 85.9928 52.7827 85.8965 52.7277 85.7903C52.6729 85.6844 52.6446 85.5707 52.6446 85.4557Z" fill="#DDE9F2"/>
<path d="M47.9434 85.4557C47.9434 85.2833 48.0071 85.1144 48.1267 84.9711C48.246 84.8275 48.4159 84.7157 48.6147 84.6498C48.8134 84.5838 49.0321 84.5664 49.2431 84.6C49.4541 84.6339 49.6481 84.7168 49.8001 84.839C49.9522 84.9608 50.0557 85.1163 50.0977 85.2857C50.1399 85.4547 50.1182 85.6303 50.0358 85.7896C49.9536 85.9489 49.8141 86.0853 49.6353 86.1812C49.4564 86.2771 49.2461 86.3281 49.031 86.3281C48.7426 86.3281 48.4659 86.2363 48.2618 86.0727C48.058 85.9091 47.9434 85.687 47.9434 85.4557Z" fill="#DDE9F2"/>
<path d="M42.7908 85.4557C42.7908 85.2117 42.881 84.973 43.0503 84.77C43.2193 84.5671 43.4597 84.4087 43.7409 84.3155C44.0221 84.222 44.3315 84.1974 44.6299 84.2451C44.9284 84.2928 45.2027 84.4104 45.4178 84.5831C45.633 84.7555 45.7797 84.9756 45.8392 85.2148C45.8984 85.4543 45.868 85.7025 45.7514 85.9282C45.6351 86.1535 45.4378 86.3465 45.1846 86.4819C44.9317 86.6176 44.6341 86.6901 44.3297 86.6901C43.9215 86.6901 43.5302 86.5599 43.2416 86.3286C42.953 86.097 42.7908 85.7832 42.7908 85.4557Z" fill="#DDE9F2"/>
<path d="M38.5368 85.4557C38.5359 85.2823 38.5993 85.1125 38.7192 84.968C38.8388 84.8235 39.0093 84.7109 39.209 84.6441C39.4086 84.5776 39.6282 84.5599 39.8403 84.5936C40.0525 84.6272 40.2474 84.7107 40.4003 84.8335C40.5533 84.9561 40.6574 85.1123 40.6994 85.2826C40.7413 85.4526 40.7196 85.6291 40.6363 85.7891C40.5533 85.9492 40.4125 86.0861 40.2325 86.1819C40.0525 86.278 39.8406 86.3288 39.6243 86.3281C39.336 86.3281 39.0593 86.2363 38.8555 86.0727C38.6514 85.9091 38.5368 85.6871 38.5368 85.4557Z" fill="#DDE9F2"/>
<path d="M108.911 53.4701H107.062V54.3456H108.911V53.4701Z" fill="#55738E"/>
<path d="M108.911 51.8252H107.062V52.701H108.911V51.8252Z" fill="#55738E"/>
<path d="M108.911 50.1806H107.062V51.0563H108.911V50.1806Z" fill="#55738E"/>
<path d="M108.911 48.5359H107.062V49.4117H108.911V48.5359Z" fill="#55738E"/>
<path d="M108.911 46.8913H107.062V47.767H108.911V46.8913Z" fill="#55738E"/>
<path d="M108.911 45.2466H107.062V46.1224H108.911V45.2466Z" fill="#55738E"/>
<path d="M108.911 43.602H107.062V44.4777H108.911V43.602Z" fill="#55738E"/>
<path d="M108.911 41.9573H107.062V42.8328H108.911V41.9573Z" fill="#55738E"/>
<path d="M108.911 40.3127H107.062V41.1882H108.911V40.3127Z" fill="#55738E"/>
<path d="M108.911 38.668H107.062V39.5435H108.911V38.668Z" fill="#55738E"/>
<path d="M83.0235 53.4701H81.1743V54.3456H83.0235V53.4701Z" fill="#55738E"/>
<path d="M83.0235 51.8252H81.1743V52.701H83.0235V51.8252Z" fill="#55738E"/>
<path d="M83.0235 50.1806H81.1743V51.0563H83.0235V50.1806Z" fill="#55738E"/>
<path d="M83.0235 48.5359H81.1743V49.4117H83.0235V48.5359Z" fill="#55738E"/>
<path d="M83.0235 46.8913H81.1743V47.767H83.0235V46.8913Z" fill="#55738E"/>
<path d="M83.0235 45.2466H81.1743V46.1224H83.0235V45.2466Z" fill="#55738E"/>
<path d="M83.0235 43.602H81.1743V44.4777H83.0235V43.602Z" fill="#55738E"/>
<path d="M83.0235 41.9573H81.1743V42.8328H83.0235V41.9573Z" fill="#55738E"/>
<path d="M83.0235 40.3127H81.1743V41.1882H83.0235V40.3127Z" fill="#55738E"/>
<path d="M83.0235 38.668H81.1743V39.5435H83.0235V38.668Z" fill="#55738E"/>
<path d="M57.1322 53.4701H55.2833V54.3456H57.1322V53.4701Z" fill="#55738E"/>
<path d="M57.1322 51.8252H55.2833V52.701H57.1322V51.8252Z" fill="#55738E"/>
<path d="M57.1322 50.1806H55.2833V51.0563H57.1322V50.1806Z" fill="#55738E"/>
<path d="M57.1322 48.5359H55.2833V49.4117H57.1322V48.5359Z" fill="#55738E"/>
<path d="M57.1322 46.8913H55.2833V47.767H57.1322V46.8913Z" fill="#55738E"/>
<path d="M57.1322 45.2466H55.2833V46.1224H57.1322V45.2466Z" fill="#55738E"/>
<path d="M57.1322 43.602H55.2833V44.4777H57.1322V43.602Z" fill="#55738E"/>
<path d="M57.1322 41.9573H55.2833V42.8328H57.1322V41.9573Z" fill="#55738E"/>
<path d="M57.1322 40.3127H55.2833V41.1882H57.1322V40.3127Z" fill="#55738E"/>
<path d="M57.1322 38.668H55.2833V39.5435H57.1322V38.668Z" fill="#55738E"/>
</svg>
